<?xml version="1.0" encoding="UTF-8" standalone="no"?>
<!DOCTYPE svg PUBLIC "-//W3C//DTD SVG 1.1//EN" "http://www.w3.org/Graphics/SVG/1.1/DTD/svg11.dtd">
<svg width="100%" height="100%" viewBox="0 0 1000 1000" version="1.1" xmlns="http://www.w3.org/2000/svg" xmlns:xlink="http://www.w3.org/1999/xlink" xml:space="preserve" xmlns:serif="http://www.serif.com/" style="fill-rule:evenodd;clip-rule:evenodd;stroke-linejoin:round;stroke-miterlimit:2;">
    <g id="Siter-text" serif:id="Siter text" transform="matrix(2.46819,0,0,2.46819,-534.828,99.7484)">
        <g transform="matrix(1,0,0,1,-1.26776,-19.0371)">
            <path d="M316.11,93.869C304.864,77.93 291.559,71.095 279.303,70.181C260.201,68.757 242.641,81.732 236.247,101.592C229.744,121.789 234.689,149.648 264.111,174.085C285.943,192.218 293.853,208.911 292.594,222.566C290.779,242.251 269.345,253.707 252.863,247.051C245.739,244.174 239.762,237.761 236.437,227.412C235.013,222.976 230.255,220.532 225.82,221.957C221.384,223.381 218.94,228.139 220.365,232.574C224.785,246.337 232.657,255.267 241.727,260.386C263.114,272.456 292.114,263.091 304.052,241.54C314.642,222.422 312.736,192.527 274.897,161.099C252.607,142.585 247.389,122.068 252.316,106.766C256.208,94.678 266.422,86.149 278.048,87.016C286.278,87.63 294.764,92.897 302.316,103.601C305.002,107.408 310.273,108.317 314.079,105.632C317.886,102.946 318.795,97.675 316.11,93.869Z"/>
        </g>
        <path d="M410.991,36.204L410.992,36.202C411.915,31.633 416.367,28.678 420.936,29.6C425.505,30.523 428.461,34.975 427.539,39.545L427.538,39.546L427.538,39.546C420.387,74.93 414.483,106.622 408.401,133.574C404.052,156.904 401.298,176.097 401.373,190.282C401.404,196.293 401.922,201.26 403.261,205.065C404.004,207.176 404.873,208.855 406.483,209.64C408.068,210.414 410.065,210.347 412.491,209.923C421.041,208.428 432.524,200.646 444.447,190.358L444.556,190.262C442.733,185.995 441.255,181.367 440.153,176.481C435.538,156.002 437.431,131.561 446.534,114.365C453.358,101.474 464.064,92.456 478.652,90.574C493.318,88.682 502.664,91.561 508.058,96.288C514.271,101.733 516.602,110.155 514.536,120.732C510.628,140.739 489.222,170.833 465.783,193.667C466.104,194.066 466.433,194.453 466.77,194.829C470.544,199.032 475.301,201.524 481.082,200.77C498.459,198.505 509.455,190.973 518.783,168.148C525.477,151.766 531.241,128.347 537.36,94.913C537.291,92.44 537.785,89.688 539.051,86.648C540.705,82.673 545.086,80.58 549.218,81.792C553.349,83.003 555.907,87.129 555.154,91.368L554.712,93.816C555.489,94.101 556.647,94.478 557.544,94.597C558.189,94.683 558.861,94.74 559.555,94.771C566.655,95.087 575.794,92.859 582.723,88.643C586.408,86.401 589.563,83.675 590.668,80.12C592,75.835 596.452,73.341 600.801,74.443C605.151,75.545 607.878,79.858 607.009,84.26C601.886,110.206 590.23,155.02 592.505,178.302C592.729,180.592 593.086,182.618 593.689,184.297C594.023,185.23 594.238,186.163 595.203,186.019C598.054,185.593 603.035,182.903 606.065,177.073C608.214,172.939 613.314,171.328 617.448,173.477C621.581,175.625 623.193,180.725 621.044,184.859C614.714,197.037 603.653,201.825 597.698,202.715C593.27,203.376 589.585,202.609 586.507,200.931C580.851,197.847 576.751,190.664 575.704,179.943C573.952,162.015 579.785,131.902 585.151,106.353C573.825,111.319 560.399,112.813 551.564,110.602C546.001,138.949 540.533,159.55 534.41,174.534C521.912,205.119 506.549,214.474 483.265,217.51C471.307,219.069 461.074,214.047 453.364,204.899C439.286,216.638 425.462,224.793 415.398,226.552C406.904,228.036 400.446,226.368 395.578,222.65C390.975,219.135 387.582,213.461 385.882,205.406C385.797,205.002 385.716,204.591 385.64,204.171C375.963,222.153 363.845,232.716 348.371,235.405C342.168,236.483 337.272,235.515 333.408,233.399C327.787,230.321 323.959,224.48 322.32,216.356C321.922,214.382 321.652,212.248 321.495,209.985C314.3,217.681 306.403,222.719 297.564,230.517C294.071,233.599 288.732,233.265 285.65,229.771C282.569,226.278 282.903,220.939 286.396,217.858C305.99,200.572 320.435,198.422 332.948,137.98C333.884,133.458 338.28,130.528 342.814,131.404C347.348,132.279 350.337,136.636 349.522,141.181C349.078,143.655 348.355,146.85 347.481,150.55L346.836,153.303L346.545,154.498C343.05,169.126 338.163,189.433 338.178,204.823C338.181,208.334 338.442,211.543 339.154,214.257C339.619,216.029 340.113,217.584 341.292,218.45C342.3,219.189 343.702,219.082 345.48,218.773C359.25,216.38 368.055,204.23 375.799,185.497C381.847,170.868 386.909,152.41 391.815,130.73C396.771,104.068 403.735,72.147 410.991,36.204L410.991,36.204ZM457.91,177.705C472.352,163.029 485.659,145.822 493.012,130.987C495.846,125.269 497.787,119.987 498.286,115.437C498.563,112.906 498.581,110.693 497.172,109.214C496.212,108.206 494.736,107.67 492.862,107.293C489.699,106.655 485.715,106.684 480.811,107.317C471.886,108.468 465.63,114.375 461.454,122.263C454.058,136.235 452.871,156.129 456.622,172.769C457.001,174.45 457.429,176.099 457.91,177.705Z"/>
        <g transform="matrix(1.14948,0,0,1.14948,-26.7638,-11.8815)">
            <circle cx="325.095" cy="112.242" r="8.277"/>
        </g>
        <g transform="matrix(0.800675,0.144261,-0.144261,0.800675,89.553,-41.0356)">
            <path d="M370.085,104.441C380.49,111.757 396.664,115.922 413.432,116.008C429.884,116.093 446.782,112.301 458.974,104.785C463.848,101.781 465.366,95.384 462.361,90.509C459.356,85.635 452.959,84.117 448.085,87.122C438.86,92.809 425.987,95.323 413.538,95.259C401.404,95.197 389.55,92.761 382.02,87.467C377.336,84.173 370.859,85.302 367.566,89.986C364.272,94.67 365.401,101.147 370.085,104.441Z"/>
        </g>
    </g>
</svg>
