<?xml version="1.0" encoding="UTF-8" standalone="no"?>
<!DOCTYPE svg PUBLIC "-//W3C//DTD SVG 1.1//EN" "http://www.w3.org/Graphics/SVG/1.1/DTD/svg11.dtd">
<svg width="100%" height="100%" viewBox="0 0 1000 1000" version="1.1" xmlns="http://www.w3.org/2000/svg" xmlns:xlink="http://www.w3.org/1999/xlink" xml:space="preserve" xmlns:serif="http://www.serif.com/" style="fill-rule:evenodd;clip-rule:evenodd;stroke-linejoin:round;stroke-miterlimit:2;">
    <g id="Siter-text" serif:id="Siter text" transform="matrix(2.46819,0,0,2.46819,-535.245,373.542)">
        <path d="M298.034,90.957C280.914,74.922 261.129,70.505 245.834,75.636C230.106,80.912 217.941,96.23 217.941,121.889C217.941,127.679 220.465,135.79 225.852,143.994C233.128,155.073 245.583,166.571 262.408,172.39C282.249,179.252 294.431,194.963 293.772,212.436C293.014,232.526 274.636,239.059 258.628,236.525C247.921,234.831 237.709,229.273 234.333,219.796C232.77,215.407 227.938,213.113 223.549,214.676C219.161,216.24 216.867,221.072 218.43,225.46C223.774,240.462 239.041,250.517 255.989,253.199C281.464,257.231 309.435,245.042 310.641,213.072C311.56,188.704 295.596,166.005 267.926,156.436C255.059,151.986 245.527,143.2 239.963,134.728C236.79,129.895 234.822,125.3 234.822,121.889C234.822,105.548 241.186,95.001 251.203,91.641C261.651,88.136 274.8,92.325 286.494,103.278C289.895,106.463 295.24,106.288 298.425,102.888C301.61,99.487 301.434,94.142 298.034,90.957Z"/>
        <path d="M408.513,91.084C412.212,75.405 415.667,61.875 419.209,52.779C420.849,48.568 425.514,46.395 429.793,47.851C434.071,49.306 436.444,53.873 435.176,58.211C432.229,68.29 427.734,83.83 423.131,101.679C420.414,113.218 417.554,125.756 414.428,138.451C409.042,163.821 405.055,189.615 405.632,208.884C405.872,216.918 406.823,223.668 409.209,228.37C410.464,230.843 412.187,232.515 414.895,232.515C421.848,232.515 429.88,230.069 438.088,225.979C432.705,215.801 429.68,203.184 429.384,190.521C428.676,160.307 443.612,131.251 473.085,131.251C492.996,131.251 508.441,144.502 508.441,164.413C508.441,178.847 499.301,195.902 485.377,210.847C478.879,217.822 471.386,224.319 463.513,229.919C466.328,231.567 469.513,232.515 473.085,232.515C478.004,232.515 482.477,230.168 486.698,226.617C491.948,222.201 496.706,215.958 501.091,208.839C514.983,186.285 524.84,155.23 530.849,138.517C531.062,137.836 531.313,137.146 531.604,136.447C533.368,132.21 538.195,130.159 542.47,131.83C546.744,133.501 548.901,138.281 547.324,142.591L546.996,143.501C546.133,146.644 549.824,147.89 553.384,148.838C558.763,150.269 565.453,150.089 571.204,147.963C576.025,146.181 580.262,142.961 581.623,137.611C582.77,133.101 587.351,130.37 591.863,131.506C596.376,132.642 599.118,137.216 597.994,141.731L597.983,141.772L597.983,141.772L597.983,141.773C593.23,160.848 584.172,192.324 584.878,214.483C585.191,224.321 586.616,232.515 595.336,232.515C596.95,232.515 598.322,231.245 599.605,230.157L605.055,223.991C607.58,220.076 612.809,218.948 616.724,221.473C620.638,223.998 621.767,229.226 619.242,233.141C619.242,233.141 615.705,238.638 610.524,243.031C606.192,246.706 600.786,249.396 595.336,249.396C589.322,249.396 584.497,247.799 580.617,245.141C575.096,241.359 571.347,235.222 569.477,227.192C565.769,211.264 570.054,186.317 575.038,164.483C566.479,167.164 556.876,167.236 549.042,165.151C545.9,164.315 543.044,163.119 540.558,161.637C534.357,178.921 525.978,200.623 515.464,217.692C503.884,236.493 489.239,249.396 473.085,249.396C463.271,249.396 454.909,245.693 448.168,239.42C436.405,245.64 424.681,249.396 414.895,249.396C405.394,249.396 398.557,244.685 394.154,236.008C391.458,230.694 389.764,223.536 389.07,215.014C378.106,236.329 363.944,249.396 347.494,249.396C341.813,249.396 337.146,247.801 333.338,244.937C328.276,241.13 324.563,234.753 322.886,225.49C321.719,219.046 321.532,210.887 322.232,201.109C316.117,212.152 310.25,222.443 305.614,232.191C303.614,236.398 298.574,238.189 294.367,236.189C290.159,234.188 288.368,229.148 290.369,224.941C302.072,200.331 321.96,172.252 333.173,137.125C334.548,132.814 339.078,130.356 343.442,131.55C347.805,132.744 350.452,137.167 349.441,141.577C340.88,178.937 336.591,206.433 339.497,222.482C340.597,228.557 342.541,232.515 347.494,232.515C352.545,232.515 356.966,230.023 361.06,226.092C366.261,221.1 370.823,213.918 375.016,205.389C384.105,186.9 391.272,162.475 397.382,138.115C400.767,121.742 404.736,105.483 408.513,91.084ZM452.537,217.241C459.887,212.039 466.941,205.87 473.026,199.339C483.644,187.942 491.559,175.42 491.559,164.413C491.559,154.298 483.2,148.132 473.085,148.132C463.984,148.132 457.449,152.919 453.172,159.916C448.142,168.145 446.003,179.153 446.261,190.126C446.486,199.761 448.572,209.418 452.537,217.241Z"/>
        <g transform="matrix(1.14948,0,0,1.14948,-25.7668,-16.645)">
            <circle cx="325.095" cy="112.242" r="8.277"/>
        </g>
        <g transform="matrix(0.809127,0.0848926,-0.0848926,0.809127,86.4719,-12.4452)">
            <path d="M370.085,104.441C380.49,111.757 396.664,115.922 413.432,116.008C429.884,116.093 446.782,112.301 458.974,104.785C463.848,101.781 465.366,95.384 462.361,90.509C459.356,85.635 452.959,84.117 448.085,87.122C438.86,92.809 425.987,95.323 413.538,95.259C401.404,95.197 389.55,92.761 382.02,87.467C377.336,84.173 370.859,85.302 367.566,89.986C364.272,94.67 365.401,101.147 370.085,104.441Z"/>
        </g>
    </g>
    <g id="Apache_HTTP_server_logo_-2016-" serif:id="Apache_HTTP_server_logo_(2016)" transform="matrix(4.73139,0,0,4.73139,1216.87,346.181)">
        <clipPath id="_clip1">
            <path d="M-138.864,11.18C-121.358,-30.864 -122.532,-30.729 -118.156,-48.304C-109.594,-82.691 -116.065,-79.889 -134.086,-72.555C-152.106,-65.222 -169.564,-52.367 -181.79,-8.97C-189.408,18.075 -202.955,78.691 -188.836,65.582C-175.102,52.831 -155.88,52.049 -138.864,11.18Z"/>
        </clipPath>
        <g clip-path="url(#_clip1)">
            <g transform="matrix(1,0,0,1,-192,-73.2185)">
                <clipPath id="_clip2">
                    <rect x="0" y="0" width="384" height="146.437"/>
                </clipPath>
                <g clip-path="url(#_clip2)">
                    <g id="layer1" transform="matrix(0.468815,0,0,0.468815,-27.1217,-175.064)">
                        <g id="g3169" transform="matrix(0.225941,0,0,0.225941,57.7251,373.431)">
                            <path id="path3178" d="M588.88,6.48C567.2,19.28 531.12,55.52 488.24,108.08L527.68,182.64C555.44,143.04 583.6,107.28 612,76.8C614.24,74.4 615.28,73.28 615.28,73.28C614.24,74.4 613.04,75.68 612,76.8C602.8,86.88 574.88,119.52 532.8,184.16C573.36,182.16 635.6,173.84 686.4,165.2C701.6,80.48 671.6,41.76 671.6,41.76C671.6,41.76 633.52,-19.84 588.88,6.48Z" style="fill:url(#_Linear3);fill-rule:nonzero;"/>
                            <path id="path3180" d="M522,431.92C522.24,431.84 522.56,431.84 522.88,431.76L517.2,432.4C516.88,432.56 516.56,432.72 516.24,432.88C518.08,432.48 520.08,432.16 522,431.92Z" style="fill:none;fill-rule:nonzero;"/>
                            <path id="path3182" d="M481.6,565.52C478.4,566.24 475.12,566.8 471.76,567.36C475.12,566.8 478.4,566.16 481.6,565.52Z" style="fill:none;fill-rule:nonzero;"/>
                            <path id="path3184" d="M207.52,865.12C207.92,864.08 208.32,862.88 208.72,861.84C217.44,838.88 226.08,816.56 234.56,794.8C244.08,770.4 253.52,746.8 262.96,723.92C272.8,699.84 282.56,676.48 292.08,653.92C302.08,630.32 312,607.52 321.76,585.6C329.68,567.76 337.44,550.48 345.12,533.76C347.68,528.16 350.24,522.64 352.8,517.2C357.84,506.32 362.8,495.76 367.76,485.36C372.32,475.84 376.8,466.48 381.36,457.2C382.88,454.16 384.32,451.12 385.84,448.08C386.08,447.6 386.32,447.12 386.56,446.56L381.68,447.04L377.84,439.44C377.44,440.16 377.12,440.96 376.72,441.68C369.84,455.52 362.88,469.36 356.08,483.36C352.16,491.52 348.24,499.68 344.32,507.76C333.52,530.4 322.96,553.36 312.48,576.24C301.92,599.52 291.6,622.88 281.36,646.32C271.44,669.36 261.6,692.4 252.08,715.36C242.56,738.32 233.2,761.2 224.08,783.84C214.56,807.52 205.36,831.04 196.4,854.24C194.32,859.52 192.4,864.72 190.32,869.92C183.12,888.64 176.08,907.2 169.28,925.44L175.36,937.44L180.8,936.88C180.96,936.32 181.2,935.84 181.36,935.2C190.24,911.36 198.96,887.92 207.52,865.12Z" style="fill:none;fill-rule:nonzero;"/>
                            <path id="path3188" d="M456.16,632.8C451.12,633.68 446,634.64 440.64,635.52C440.64,635.52 440.56,635.52 440.56,635.6C443.28,635.2 445.92,634.8 448.56,634.4C451.04,633.84 453.6,633.36 456.16,632.8Z" style="fill:rgb(189,32,46);fill-rule:nonzero;"/>
                            <path id="path3190" d="M456.16,632.8C451.12,633.68 446,634.64 440.64,635.52C440.64,635.52 440.56,635.52 440.56,635.6C443.28,635.2 445.92,634.8 448.56,634.4C451.04,633.84 453.6,633.36 456.16,632.8Z" style="fill:rgb(189,32,46);fill-opacity:0.35;fill-rule:nonzero;"/>
                            <path id="path3192" d="M469.36,567.6C469.36,567.6 469.36,567.68 469.36,567.6C469.28,567.6 469.28,567.6 469.28,567.68C470.08,567.6 470.96,567.44 471.76,567.28C475.12,566.8 478.4,566.24 481.6,565.44C477.6,566.16 473.6,566.88 469.36,567.6Z" style="fill:rgb(189,32,46);fill-rule:nonzero;"/>
                            <path id="path3194" d="M469.36,567.6C469.36,567.6 469.36,567.68 469.36,567.6C469.28,567.6 469.28,567.6 469.28,567.68C470.08,567.6 470.96,567.44 471.76,567.28C475.12,566.8 478.4,566.24 481.6,565.44C477.6,566.16 473.6,566.88 469.36,567.6Z" style="fill:rgb(189,32,46);fill-opacity:0.35;fill-rule:nonzero;"/>
                            <path id="path3205" d="M411.2,375.36C423.2,352.88 435.36,330.96 447.6,309.68C460.32,287.44 473.28,266 486.32,245.2C487.04,244 487.92,242.72 488.64,241.52C501.52,221.12 514.56,201.44 527.6,182.72L488.16,108.16C485.2,111.76 482.24,115.44 479.2,119.28C467.76,133.52 456,148.72 443.84,164.96C430.16,183.2 416.16,202.72 401.84,223.2C388.72,242.08 375.28,261.84 361.84,282.4C350.4,299.84 339.04,317.76 327.68,336.16C327.28,336.8 326.88,337.52 326.48,338.24L377.92,439.84C388.8,417.84 400,396.32 411.2,375.36Z" style="fill:url(#_Linear4);fill-rule:nonzero;"/>
                            <path id="path3216" d="M176.96,947.52C170.16,966.16 163.28,985.28 156.48,1004.72C156.4,1004.96 156.32,1005.28 156.16,1005.52C155.2,1008.24 154.16,1011.04 153.28,1013.76C148.64,1026.88 144.64,1038.72 135.44,1065.52C150.56,1072.4 162.72,1090.64 174.24,1111.28C173.04,1089.92 164.24,1069.84 147.36,1054.32C222,1057.68 286.32,1038.8 319.6,984.24C322.56,979.36 325.28,974.32 327.76,968.8C312.64,988 293.84,996.08 258.56,994.16C258.48,994.16 258.4,994.24 258.32,994.24C258.4,994.24 258.48,994.16 258.56,994.16C310.56,970.88 336.56,948.56 359.68,911.6C365.12,902.8 370.48,893.28 375.92,882.64C330.48,929.28 277.92,942.56 222.48,932.48L180.88,937.04C179.52,940.56 178.32,944 176.96,947.52Z" style="fill:url(#_Linear5);fill-rule:nonzero;"/>
                            <path id="path3227" d="M196.4,854.48C205.36,831.28 214.64,807.76 224.08,784.08C233.2,761.36 242.48,738.48 252.08,715.6C261.68,692.72 271.44,669.6 281.36,646.56C291.44,623.12 301.84,599.76 312.48,576.48C322.96,553.44 333.52,530.56 344.32,508C348.16,499.84 352.16,491.68 356.08,483.6C362.88,469.6 369.76,455.68 376.72,441.92C377.12,441.2 377.44,440.4 377.84,439.68L326.4,338.08C325.6,339.44 324.72,340.88 323.84,342.16C311.84,361.76 299.92,381.76 288.24,402.16C276.4,422.8 264.8,443.84 253.44,465.2C243.92,483.2 234.56,501.28 225.36,519.68C223.52,523.36 221.76,527.12 219.92,530.8C208.72,553.92 198.64,576.08 189.44,597.6C179.04,621.84 169.92,645.04 162,667.04C156.72,681.52 152,695.44 147.6,708.88C144,720.32 140.64,731.84 137.28,743.28C129.6,770.16 122.96,797.04 117.52,823.76L169.2,925.76C176,907.52 183.04,888.96 190.24,870.24C192.4,864.88 194.32,859.6 196.4,854.48Z" style="fill:url(#_Linear6);fill-rule:nonzero;"/>
                            <path id="path3238" d="M116.96,827.2C110.48,859.84 105.84,892.32 103.52,924.64C103.44,925.76 103.36,926.88 103.28,928C87.12,902.16 44,876.96 44.08,877.2C75.04,922 98.48,966.48 101.92,1010.16C85.36,1013.52 62.72,1008.64 36.56,999.04C63.84,1024.16 84.32,1031.04 92.4,1032.96C67.28,1034.56 41.2,1051.76 14.88,1071.6C53.36,1055.92 84.48,1049.68 106.72,1054.72C71.36,1154.72 36,1265.12 0.56,1382.4C11.44,1379.2 17.92,1371.84 21.52,1362C27.84,1340.8 69.68,1201.44 135.36,1018.48C137.28,1013.28 139.12,1008 141.04,1002.8C141.52,1001.28 142.08,999.84 142.64,998.48C149.52,979.28 156.8,959.68 164.16,939.68C165.84,935.12 167.52,930.56 169.28,926C169.28,925.92 169.36,925.84 169.36,925.76L117.6,823.76C117.44,824.8 117.2,826 116.96,827.2Z" style="fill:url(#_Linear7);fill-rule:nonzero;"/>
                            <path id="path3249" d="M385.84,448.16C384.32,451.2 382.88,454.24 381.36,457.28C376.88,466.48 372.4,475.84 367.76,485.44C362.8,495.84 357.84,506.4 352.8,517.28C350.24,522.72 347.68,528.24 345.12,533.84C337.44,550.56 329.68,567.84 321.76,585.68C312.08,607.52 302.08,630.32 292.08,654C282.56,676.56 272.72,699.84 262.96,724C253.6,746.88 244.16,770.56 234.56,794.88C226,816.56 217.36,838.96 208.72,861.92C208.32,862.96 207.92,864.16 207.52,865.2C198.88,888 190.16,911.44 181.44,935.44C181.28,936 181.04,936.48 180.88,937.12L222.48,932.56C221.68,932.4 220.8,932.32 220,932.16C269.68,926 335.84,888.8 378.48,842.96C398.16,821.84 416,796.88 432.48,767.68C444.72,746 456.32,721.84 467.36,695.2C476.96,671.92 486.16,646.64 495.04,619.36C483.6,625.36 470.56,629.84 456.16,632.88C453.6,633.44 451.04,633.92 448.4,634.4C445.76,634.88 443.12,635.28 440.4,635.6C440.4,635.6 440.48,635.6 440.48,635.52C486.88,617.68 516.08,583.28 537.28,541.12C525.12,549.44 505.28,560.32 481.52,565.52C478.32,566.24 475.04,566.8 471.68,567.36C470.88,567.44 470,567.6 469.2,567.76L469.36,567.76C485.52,561.04 499.04,553.44 510.8,544.56C513.36,542.64 515.84,540.72 518.08,538.64C521.68,535.52 525.04,532.24 528.4,528.88C530.48,526.64 532.48,524.4 534.48,522.08C539.12,516.56 543.44,510.64 547.44,504.24C548.64,502.24 549.92,500.32 551.04,498.24C552.64,495.28 554.08,492.32 555.52,489.52C562,476.56 567.2,464.88 571.28,454.72C573.36,449.6 575.12,444.96 576.72,440.48C577.36,438.72 577.92,437.04 578.48,435.36C580.16,430.48 581.44,426.16 582.48,422.32C584.08,416.56 585.04,412 585.52,408.72C583.92,409.92 582.16,411.2 580.08,412.4C566.08,420.8 542.08,428.32 522.72,431.92L560.88,427.76L522.72,431.92C522.48,432 522.16,432 521.84,432.08C519.84,432.4 518,432.72 516,432.96C516.32,432.8 516.64,432.64 516.96,432.48L386.32,446.8C386.32,447.12 386.08,447.68 385.84,448.16Z" style="fill:url(#_Linear8);fill-rule:nonzero;"/>
                            <path id="path3260" d="M532.88,184.16C521.28,202 508.64,222.24 494.88,245.2C494.16,246.32 493.36,247.68 492.72,248.8C480.96,268.64 468.48,290.4 455.2,314.32C443.84,334.96 432,357.04 419.68,380.8C408.96,401.52 397.92,423.52 386.48,446.8L517.12,432.48C555.2,414.96 572.16,399.2 588.64,376.24C592.96,369.92 597.44,363.36 601.76,356.48C615.2,335.52 628.32,312.48 640.08,289.52C651.44,267.36 661.44,245.44 669.12,225.6C674,213.04 677.92,201.36 680.64,191.04C683.04,182 684.88,173.36 686.32,165.12C635.68,173.84 573.36,182.16 532.88,184.16Z" style="fill:url(#_Linear9);fill-rule:nonzero;"/>
                            <path id="path3262" d="M448.4,634.24C445.76,634.72 443.12,635.12 440.4,635.44C443.12,635.2 445.84,634.72 448.4,634.24Z" style="fill:rgb(189,32,46);fill-rule:nonzero;"/>
                            <path id="path3264" d="M448.4,634.24C445.76,634.72 443.12,635.12 440.4,635.44C443.12,635.2 445.84,634.72 448.4,634.24Z" style="fill:rgb(189,32,46);fill-opacity:0.35;fill-rule:nonzero;"/>
                            <path id="path3275" d="M448.4,634.24C445.76,634.72 443.12,635.12 440.4,635.44C443.12,635.2 445.84,634.72 448.4,634.24Z" style="fill:url(#_Linear10);fill-rule:nonzero;"/>
                            <path id="path3277" d="M469.28,567.68C470.08,567.6 470.96,567.44 471.76,567.28C470.96,567.36 470.16,567.6 469.28,567.68Z" style="fill:rgb(189,32,46);fill-rule:nonzero;"/>
                            <path id="path3279" d="M469.28,567.68C470.08,567.6 470.96,567.44 471.76,567.28C470.96,567.36 470.16,567.6 469.28,567.68Z" style="fill:rgb(189,32,46);fill-opacity:0.35;fill-rule:nonzero;"/>
                            <path id="path3290" d="M469.28,567.68C470.08,567.6 470.96,567.44 471.76,567.28C470.96,567.36 470.16,567.6 469.28,567.68Z" style="fill:url(#_Linear11);fill-rule:nonzero;"/>
                            <path id="path3292" d="M469.28,567.68C469.36,567.68 469.36,567.6 469.28,567.68C469.36,567.6 469.36,567.68 469.28,567.68Z" style="fill:rgb(189,32,46);fill-rule:nonzero;"/>
                            <path id="path3294" d="M469.28,567.68C469.36,567.68 469.36,567.6 469.28,567.68C469.36,567.6 469.36,567.68 469.28,567.68Z" style="fill:rgb(189,32,46);fill-opacity:0.35;fill-rule:nonzero;"/>
                            <path id="path3305" d="M469.28,567.68C469.36,567.68 469.36,567.6 469.28,567.68C469.36,567.6 469.36,567.68 469.28,567.68Z" style="fill:url(#_Linear12);fill-rule:nonzero;"/>
                        </g>
                        <path id="path3469-1" d="M586.612,584.246C584.801,583.921 577.962,582.169 576.892,581.755C574.384,580.787 565.771,576.375 564.76,575.541C563.408,574.426 563.234,574.291 560.771,572.456C558.331,570.638 553.097,565.403 551.279,562.964C550.502,561.921 549.653,560.808 549.392,560.491C549.131,560.174 548.694,559.641 548.42,559.306C547.846,558.602 542.991,550.399 542.991,550.132C542.991,550.033 542.486,548.827 541.869,547.45C541.252,546.073 540.376,543.88 539.922,542.576C539.469,541.272 538.914,539.778 538.69,539.257C538.189,538.089 536.82,531.64 536.325,528.114C535.802,524.386 535.818,514.155 536.352,510.808C537.76,501.991 538.87,498.223 542.09,491.337C542.586,490.277 542.991,489.157 542.991,488.848C542.991,488.539 543.205,488.286 543.465,488.286C543.726,488.286 543.94,488.011 543.94,487.674C543.94,487.337 545.257,485.065 546.867,482.625C549.479,478.668 555.427,472.096 559.349,468.836C563.407,465.462 571.434,461.065 576.227,459.59C577.636,459.157 579.322,458.617 579.974,458.392C582.384,457.559 587.013,456.953 593.013,456.686C600.747,456.341 608.861,457.351 614.587,459.37C618.869,460.881 622.781,462.687 623.042,463.275C623.129,463.471 623.408,463.631 623.661,463.631C624.661,463.631 630.044,467.709 633.275,470.915C637.015,474.624 639.463,477.874 641.403,481.701C642.618,484.099 642.632,484.216 641.784,484.801C641.299,485.136 640.678,485.576 640.405,485.781C640.131,485.985 639.351,486.473 638.672,486.864C637.992,487.255 636.453,488.184 635.251,488.928C632.803,490.443 631.869,490.332 631.15,488.439C629.139,483.151 619.917,474.474 613.639,471.962C606.724,469.196 602.531,468.371 595.416,468.376C587.876,468.384 583.027,469.307 577.001,471.893C574.942,472.777 570.55,475.4 569.628,476.298C569.283,476.633 568.856,476.907 568.678,476.907C568.174,476.907 562.901,482.111 560.581,484.898C558.07,487.914 553.707,495.672 552.677,498.955C552.267,500.258 551.745,501.752 551.516,502.274C549.502,506.862 548.315,517.978 549.049,525.388C549.551,530.46 550.605,535.77 551.52,537.834C551.751,538.356 552.082,539.316 552.255,539.968C553.019,542.843 557.484,551.162 559.823,554.07C562.16,556.975 566.423,561.458 568.358,563.045C570.574,564.863 577.77,569.361 578.473,569.368C578.647,569.368 579.34,569.658 580.013,570.01C580.686,570.361 583.14,571.159 585.466,571.784C589.021,572.739 590.714,572.91 596.095,572.862C605.1,572.781 610.814,571.227 618.38,566.801C623.338,563.901 630.185,557.206 632.604,552.894C633.517,551.267 634.477,549.932 634.738,549.929C635.743,549.915 644.932,554.915 644.932,555.475C644.932,556.14 642.17,561.41 641.629,561.779C641.438,561.909 641.035,562.482 640.735,563.053C639.603,565.204 634.412,570.279 629.522,574.017C626.927,576.001 620.058,579.49 615.298,581.241C608.973,583.569 605.137,584.193 596.332,584.328C591.638,584.4 587.264,584.363 586.612,584.246ZM208.246,583.583C208.246,583.318 208.452,582.732 208.704,582.279C208.955,581.826 209.607,580.389 210.152,579.085C210.697,577.781 211.331,576.287 211.56,575.766C211.79,575.244 213.282,571.724 214.876,567.942C216.469,564.161 217.967,560.641 218.204,560.119C218.441,559.598 219.187,557.784 219.863,556.089C220.538,554.394 221.283,552.58 221.518,552.059C221.752,551.537 222.398,550.044 222.953,548.74C223.508,547.436 224.266,545.697 224.638,544.875C225.011,544.053 225.315,543.241 225.315,543.071C225.315,542.802 226.225,540.616 227.691,537.36C227.926,536.839 228.67,535.025 229.346,533.33C230.021,531.635 230.768,529.821 231.005,529.3C231.243,528.778 231.989,526.965 232.665,525.27C233.34,523.574 234.085,521.761 234.319,521.239C234.554,520.718 235.197,519.224 235.747,517.92C236.297,516.616 236.935,515.123 237.164,514.601C237.394,514.08 238.567,511.306 239.771,508.438C240.975,505.569 242.152,502.795 242.386,502.274C242.62,501.752 243.686,499.192 244.755,496.584C245.824,493.976 246.89,491.416 247.123,490.894C247.356,490.373 248.293,488.132 249.205,485.916C254.315,473.498 255.486,470.689 256.62,468.135C256.851,467.614 257.597,465.8 258.277,464.105C258.958,462.41 259.928,460.116 260.435,459.008L261.355,456.993L271.665,456.993L272.725,459.482C274.043,462.579 275.493,465.939 276.049,467.187C277.663,470.811 278.419,472.627 278.419,472.877C278.419,473.142 279.329,475.289 281.061,479.112C281.434,479.934 281.738,480.746 281.738,480.916C281.738,481.184 282.472,482.95 284.109,486.627C285.723,490.251 286.48,492.067 286.48,492.317C286.48,492.476 286.922,493.607 287.462,494.832C288.003,496.056 288.764,497.805 289.154,498.718C289.544,499.63 290.052,500.804 290.284,501.325C290.515,501.847 291.257,503.66 291.933,505.356C292.608,507.051 293.351,508.864 293.584,509.386C293.816,509.907 295.314,513.428 296.911,517.209C298.508,520.99 300.006,524.511 300.238,525.032C300.471,525.554 301.009,526.834 301.434,527.877C305.794,538.585 307.525,542.795 308.064,543.998C308.414,544.781 309.579,547.554 310.653,550.162C311.727,552.77 312.796,555.33 313.03,555.852C313.263,556.373 313.904,557.867 314.454,559.171C315.004,560.475 315.647,561.968 315.881,562.49C316.116,563.011 316.861,564.825 317.536,566.52C318.212,568.215 318.957,570.029 319.192,570.55C321.489,575.638 324.411,582.817 324.411,583.371C324.411,583.946 323.251,584.063 317.568,584.063C310.884,584.063 310.717,584.038 310.4,582.997C310.109,582.043 309.006,579.366 307.812,576.714C307.577,576.193 306.828,574.379 306.148,572.684C304.99,569.795 304.052,567.561 303.064,565.335C302.833,564.813 302.091,563 301.415,561.304C300.74,559.609 299.995,557.796 299.761,557.274C298.323,554.081 297.385,551.836 297.385,551.584C297.385,551.426 296.989,550.4 296.504,549.306C296.02,548.212 295.327,546.624 294.966,545.776L294.309,544.235L238.234,544.235L237.278,546.488C236.752,547.726 235.738,550.233 235.024,552.059C234.311,553.884 233.328,556.273 232.84,557.367C232.353,558.461 231.953,559.486 231.953,559.645C231.953,559.896 231.016,562.141 229.578,565.335C229.343,565.856 228.598,567.67 227.923,569.365C227.248,571.06 226.497,572.874 226.254,573.395C226.011,573.917 225.042,576.264 224.099,578.611C223.157,580.958 222.276,583.145 222.141,583.471C221.829,584.224 208.246,584.333 208.246,583.583ZM291.221,533.778C291.221,533.326 290.522,531.62 288.579,527.332C288.207,526.51 287.902,525.689 287.902,525.507C287.902,525.325 287.592,524.504 287.213,523.682C286.835,522.86 285.337,519.2 283.885,515.55C282.433,511.899 281.048,508.485 280.806,507.963C280.565,507.442 279.386,504.455 278.188,501.325C276.989,498.196 275.819,495.209 275.586,494.687C275.354,494.166 274.845,492.992 274.456,492.08C274.066,491.167 273.304,489.418 272.764,488.194C272.224,486.97 271.78,485.796 271.779,485.586C271.779,485.376 271.5,484.671 271.163,484.019C270.827,483.367 270.038,481.447 269.411,479.752C268.783,478.057 267.995,476.136 267.658,475.485C267.321,474.833 267.045,474.032 267.043,473.706C267.035,472.71 266.175,473.048 265.834,474.181C265.657,474.767 265.23,475.888 264.886,476.67C264.541,477.452 263.38,480.226 262.306,482.834C261.232,485.442 259.733,489.069 258.974,490.894C258.215,492.72 254.188,502.428 250.024,512.468C245.86,522.508 242.115,531.522 241.701,532.5L240.949,534.278L266.085,534.278C283.398,534.278 291.221,534.123 291.221,533.778ZM337.687,584.068L337.687,456.993L364.121,457.001C391.728,457.009 396.728,457.263 401.155,458.913C404.279,460.077 409.122,462.477 410.007,463.3C410.346,463.615 411.335,464.402 412.205,465.049C418.323,469.598 424.166,478.68 426.396,487.105C428.555,495.263 427.672,506.368 424.249,514.108C419.336,525.218 411.066,532.907 400.627,536.072C398.534,536.707 394.371,536.854 374.315,537.005L350.489,537.183L350.489,584.068L337.687,584.068ZM393.957,525.231C402.703,524.021 409.792,517.357 413.334,507.015C414.552,503.457 414.83,493.636 413.823,489.69C412.455,484.328 409.949,479.875 406.227,476.196C404.381,474.37 402.232,472.557 401.454,472.166C400.674,471.776 399.93,471.341 399.8,471.2C399.67,471.06 398.603,470.531 397.429,470.026C395.437,469.168 393.812,469.097 372.892,468.955L350.489,468.803L350.489,525.744L370.369,525.744C382.026,525.744 391.783,525.532 393.957,525.231ZM420.511,583.708C420.397,583.512 421.121,581.432 422.12,579.085C423.119,576.738 425.778,570.337 428.029,564.86C430.279,559.384 432.408,554.263 432.76,553.481C433.112,552.699 434.282,549.925 435.361,547.317C437.249,542.751 438.274,540.322 439.162,538.308C439.392,537.787 440.459,535.227 441.533,532.619C442.607,530.011 443.767,527.237 444.112,526.455C444.456,525.673 445.838,522.365 447.181,519.106C448.525,515.846 450.242,511.685 450.997,509.86C452.606,505.968 457.988,493.218 458.602,491.842C458.835,491.321 459.578,489.507 460.253,487.812C460.929,486.117 461.673,484.304 461.908,483.782C462.143,483.26 462.789,481.767 463.344,480.463C463.898,479.159 464.657,477.42 465.029,476.598C465.401,475.776 465.706,474.965 465.706,474.794C465.706,474.526 466.439,472.76 468.077,469.084C469.018,466.969 470.371,463.711 471.424,461.023C472.037,459.458 472.734,457.912 472.973,457.586C473.275,457.175 474.976,456.993 478.508,456.993L483.608,456.993L484.227,458.534C485.471,461.631 490.917,474.559 492.266,477.618C492.496,478.14 493.56,480.7 494.629,483.308C495.698,485.916 496.769,488.476 497.009,488.998C497.249,489.519 499.061,493.893 501.036,498.718C503.012,503.542 504.82,507.916 505.054,508.438C505.288,508.959 506.589,512.053 507.945,515.313C511.15,523.017 514.481,530.947 515.016,532.145C515.249,532.666 515.889,534.16 516.439,535.464C516.989,536.768 517.631,538.261 517.866,538.783C518.101,539.304 518.85,541.118 519.53,542.813C520.688,545.702 521.626,547.936 522.614,550.162C522.845,550.684 523.591,552.497 524.271,554.192C524.951,555.887 525.814,557.947 526.189,558.768C526.564,559.59 526.87,560.409 526.87,560.588C526.87,560.767 527.51,562.297 528.293,563.987C529.075,565.677 529.715,567.173 529.715,567.311C529.715,567.449 530.022,568.234 530.397,569.056C530.772,569.878 531.635,571.937 532.315,573.632C532.995,575.327 533.743,577.141 533.978,577.662C535.62,581.309 536.353,583.13 536.353,583.563C536.353,584.325 523.333,584.237 522.718,583.471C522.456,583.145 520.377,578.291 518.098,572.684C515.819,567.077 513.674,561.85 513.33,561.067C512.986,560.285 512.149,558.258 511.469,556.563C510.789,554.868 510.041,553.054 509.806,552.533C509.163,551.105 507.658,547.516 506.972,545.773L506.364,544.228L478.157,544.35L449.949,544.472L447.142,551.348C445.598,555.129 444.129,558.716 443.878,559.32C443.627,559.924 443.421,560.522 443.421,560.65C443.421,560.853 442.392,563.294 441.046,566.283C440.811,566.805 440.062,568.618 439.383,570.313C438.703,572.008 437.866,574.035 437.524,574.818C437.182,575.6 436.193,578 435.327,580.152L433.752,584.063L427.235,584.063C423.651,584.063 420.625,583.903 420.511,583.708ZM503.163,534.027C503.163,533.793 501.53,529.729 500.121,526.455C499.784,525.673 499.007,523.646 498.395,521.951C497.782,520.256 497.006,518.335 496.669,517.683C496.332,517.031 496.056,516.326 496.054,516.116C496.046,515.786 495.216,513.754 493.676,510.334C493.441,509.813 492.692,507.999 492.012,506.304C491.333,504.609 490.497,502.582 490.155,501.799C489.813,501.017 489.141,499.31 488.662,498.006C488.182,496.702 487.517,495.102 487.182,494.45C486.848,493.798 486.573,493.084 486.571,492.862C486.571,492.641 486.26,491.788 485.883,490.966C485.506,490.144 484.413,487.445 483.454,484.967C482.495,482.49 481.34,479.61 480.888,478.566C480.435,477.523 479.769,475.976 479.407,475.128C478.587,473.205 478.049,473.359 477.241,475.748C476.894,476.777 476.408,478.045 476.162,478.566C475.916,479.088 475.265,480.582 474.715,481.885C474.165,483.189 473.522,484.683 473.287,485.204C472.901,486.059 467.742,498.388 461.384,513.653C460.08,516.782 458.823,519.77 458.59,520.291C458.358,520.813 457.296,523.373 456.231,525.981C455.166,528.589 453.982,531.423 453.6,532.279C453.217,533.136 452.904,533.936 452.904,534.057C452.904,534.179 464.212,534.278 478.034,534.278C491.855,534.278 503.163,534.165 503.163,534.027ZM662.225,583.485C662.098,583.151 662.049,554.607 662.116,520.054L662.238,457.23L674.566,457.23L674.688,485.323L674.811,513.416L749.244,513.416L749.244,456.993L762.045,456.993L762.045,584.063L749.244,584.063L749.244,524.795L674.81,524.795L674.688,554.311L674.566,583.826L668.511,583.959C663.93,584.059 662.4,583.945 662.225,583.485ZM790.02,584.063L790.02,456.993L873.469,456.993L873.469,468.846L802.822,468.846L802.822,513.416L864.46,513.416L864.46,524.795L802.822,524.795L802.822,572.21L874.891,572.21L874.891,584.063L790.02,584.063Z" style="fill:rgb(170,0,0);fill-rule:nonzero;"/>
                        <g id="text4654">
                            <path id="path4656" d="M204.608,638.462L204.608,599.13L211.247,599.13L211.247,616.179L230.772,616.179L230.772,599.13L237.412,599.13L237.412,638.462L230.772,638.462L230.772,622.369L211.247,622.369L211.247,638.462L204.608,638.462Z" style="fill-rule:nonzero;"/>
                            <path id="path4658" d="M263.202,605.207L263.202,638.462L256.563,638.462L256.563,605.207L244.634,605.207L244.634,599.13L275.131,599.13L275.131,605.207L263.202,605.207Z" style="fill-rule:nonzero;"/>
                            <path id="path4660" d="M297.161,605.207L297.161,638.462L290.521,638.462L290.521,605.207L278.593,605.207L278.593,599.13L309.09,599.13L309.09,605.207L297.161,605.207Z" style="fill-rule:nonzero;"/>
                            <path id="path4662" d="M329.769,599.13C335.734,599.13 340.085,600.274 342.824,602.563C345.562,604.851 346.931,608.377 346.931,613.141C346.931,617.905 345.525,621.394 342.711,623.607C339.935,625.82 335.659,626.927 329.882,626.927L322.905,626.927L322.905,638.462L316.265,638.462L316.265,599.13L329.769,599.13ZM330.613,620.906C334.29,620.906 336.784,620.212 338.097,618.824C339.448,617.399 340.123,615.335 340.123,612.635C340.123,609.896 339.279,607.964 337.591,606.839C335.903,605.714 333.258,605.151 329.657,605.151L322.905,605.151L322.905,620.906L330.613,620.906Z" style="fill-rule:nonzero;"/>
                            <path id="path4664" d="M381.988,604.307C380.075,604.307 378.499,604.701 377.262,605.489C376.024,606.276 375.405,607.477 375.405,609.09C375.405,610.665 376.024,611.884 377.262,612.747C378.499,613.572 381.125,614.473 385.139,615.448C389.19,616.423 392.229,617.792 394.255,619.556C396.318,621.319 397.349,623.926 397.349,627.377C397.349,630.79 396.055,633.566 393.467,635.705C390.878,637.843 387.484,638.912 383.282,638.912C377.13,638.912 371.672,636.792 366.908,632.554L371.072,627.546C375.048,630.997 379.175,632.722 383.451,632.722C385.589,632.722 387.277,632.272 388.515,631.372C389.791,630.434 390.428,629.215 390.428,627.714C390.428,626.176 389.828,624.995 388.628,624.17C387.465,623.307 385.439,622.538 382.551,621.863C379.662,621.15 377.468,620.512 375.967,619.949C374.467,619.349 373.135,618.58 371.972,617.642C369.647,615.879 368.484,613.179 368.484,609.54C368.484,605.901 369.797,603.106 372.423,601.156C375.086,599.168 378.368,598.174 382.269,598.174C384.783,598.174 387.277,598.586 389.753,599.412C392.229,600.237 394.367,601.4 396.168,602.9L392.623,607.908C391.46,606.858 389.884,605.995 387.896,605.32C385.908,604.644 383.939,604.307 381.988,604.307Z" style="fill-rule:nonzero;"/>
                        </g>
                    </g>
                    <g id="g2108" transform="matrix(0.468815,0,0,0.468815,-27.1217,-175.064)">
                        <g id="g2068" transform="matrix(0.225941,0,0,0.225941,57.7251,373.431)">
                            <path id="path1930" d="M588.88,6.48C567.2,19.28 531.12,55.52 488.24,108.08L527.68,182.64C555.44,143.04 583.6,107.28 612,76.8C614.24,74.4 615.28,73.28 615.28,73.28C614.24,74.4 613.04,75.68 612,76.8C602.8,86.88 574.88,119.52 532.8,184.16C573.36,182.16 635.6,173.84 686.4,165.2C701.6,80.48 671.6,41.76 671.6,41.76C671.6,41.76 633.52,-19.84 588.88,6.48Z" style="fill:url(#_Linear13);fill-rule:nonzero;"/>
                            <path id="path1932" d="M522,431.92C522.24,431.84 522.56,431.84 522.88,431.76L517.2,432.4C516.88,432.56 516.56,432.72 516.24,432.88C518.08,432.48 520.08,432.16 522,431.92Z" style="fill:none;fill-rule:nonzero;"/>
                            <path id="path1934" d="M481.6,565.52C478.4,566.24 475.12,566.8 471.76,567.36C475.12,566.8 478.4,566.16 481.6,565.52Z" style="fill:none;fill-rule:nonzero;"/>
                            <path id="path1936" d="M207.52,865.12C207.92,864.08 208.32,862.88 208.72,861.84C217.44,838.88 226.08,816.56 234.56,794.8C244.08,770.4 253.52,746.8 262.96,723.92C272.8,699.84 282.56,676.48 292.08,653.92C302.08,630.32 312,607.52 321.76,585.6C329.68,567.76 337.44,550.48 345.12,533.76C347.68,528.16 350.24,522.64 352.8,517.2C357.84,506.32 362.8,495.76 367.76,485.36C372.32,475.84 376.8,466.48 381.36,457.2C382.88,454.16 384.32,451.12 385.84,448.08C386.08,447.6 386.32,447.12 386.56,446.56L381.68,447.04L377.84,439.44C377.44,440.16 377.12,440.96 376.72,441.68C369.84,455.52 362.88,469.36 356.08,483.36C352.16,491.52 348.24,499.68 344.32,507.76C333.52,530.4 322.96,553.36 312.48,576.24C301.92,599.52 291.6,622.88 281.36,646.32C271.44,669.36 261.6,692.4 252.08,715.36C242.56,738.32 233.2,761.2 224.08,783.84C214.56,807.52 205.36,831.04 196.4,854.24C194.32,859.52 192.4,864.72 190.32,869.92C183.12,888.64 176.08,907.2 169.28,925.44L175.36,937.44L180.8,936.88C180.96,936.32 181.2,935.84 181.36,935.2C190.24,911.36 198.96,887.92 207.52,865.12Z" style="fill:none;fill-rule:nonzero;"/>
                            <path id="path1940" d="M456.16,632.8C451.12,633.68 446,634.64 440.64,635.52C440.64,635.52 440.56,635.52 440.56,635.6C443.28,635.2 445.92,634.8 448.56,634.4C451.04,633.84 453.6,633.36 456.16,632.8Z" style="fill:rgb(189,32,46);fill-rule:nonzero;"/>
                            <path id="path1942" d="M456.16,632.8C451.12,633.68 446,634.64 440.64,635.52C440.64,635.52 440.56,635.52 440.56,635.6C443.28,635.2 445.92,634.8 448.56,634.4C451.04,633.84 453.6,633.36 456.16,632.8Z" style="fill:rgb(189,32,46);fill-opacity:0.35;fill-rule:nonzero;"/>
                            <path id="path1944" d="M469.36,567.6C469.36,567.6 469.36,567.68 469.36,567.6C469.28,567.6 469.28,567.6 469.28,567.68C470.08,567.6 470.96,567.44 471.76,567.28C475.12,566.8 478.4,566.24 481.6,565.44C477.6,566.16 473.6,566.88 469.36,567.6Z" style="fill:rgb(189,32,46);fill-rule:nonzero;"/>
                            <path id="path1946" d="M469.36,567.6C469.36,567.6 469.36,567.68 469.36,567.6C469.28,567.6 469.28,567.6 469.28,567.68C470.08,567.6 470.96,567.44 471.76,567.28C475.12,566.8 478.4,566.24 481.6,565.44C477.6,566.16 473.6,566.88 469.36,567.6Z" style="fill:rgb(189,32,46);fill-opacity:0.35;fill-rule:nonzero;"/>
                            <path id="path1958" d="M411.2,375.36C423.2,352.88 435.36,330.96 447.6,309.68C460.32,287.44 473.28,266 486.32,245.2C487.04,244 487.92,242.72 488.64,241.52C501.52,221.12 514.56,201.44 527.6,182.72L488.16,108.16C485.2,111.76 482.24,115.44 479.2,119.28C467.76,133.52 456,148.72 443.84,164.96C430.16,183.2 416.16,202.72 401.84,223.2C388.72,242.08 375.28,261.84 361.84,282.4C350.4,299.84 339.04,317.76 327.68,336.16C327.28,336.8 326.88,337.52 326.48,338.24L377.92,439.84C388.8,417.84 400,396.32 411.2,375.36Z" style="fill:url(#_Linear14);fill-rule:nonzero;"/>
                            <path id="path1970" d="M176.96,947.52C170.16,966.16 163.28,985.28 156.48,1004.72C156.4,1004.96 156.32,1005.28 156.16,1005.52C155.2,1008.24 154.16,1011.04 153.28,1013.76C148.64,1026.88 144.64,1038.72 135.44,1065.52C150.56,1072.4 162.72,1090.64 174.24,1111.28C173.04,1089.92 164.24,1069.84 147.36,1054.32C222,1057.68 286.32,1038.8 319.6,984.24C322.56,979.36 325.28,974.32 327.76,968.8C312.64,988 293.84,996.08 258.56,994.16C258.48,994.16 258.4,994.24 258.32,994.24C258.4,994.24 258.48,994.16 258.56,994.16C310.56,970.88 336.56,948.56 359.68,911.6C365.12,902.8 370.48,893.28 375.92,882.64C330.48,929.28 277.92,942.56 222.48,932.48L180.88,937.04C179.52,940.56 178.32,944 176.96,947.52Z" style="fill:url(#_Linear15);fill-rule:nonzero;"/>
                            <path id="path1982" d="M196.4,854.48C205.36,831.28 214.64,807.76 224.08,784.08C233.2,761.36 242.48,738.48 252.08,715.6C261.68,692.72 271.44,669.6 281.36,646.56C291.44,623.12 301.84,599.76 312.48,576.48C322.96,553.44 333.52,530.56 344.32,508C348.16,499.84 352.16,491.68 356.08,483.6C362.88,469.6 369.76,455.68 376.72,441.92C377.12,441.2 377.44,440.4 377.84,439.68L326.4,338.08C325.6,339.44 324.72,340.88 323.84,342.16C311.84,361.76 299.92,381.76 288.24,402.16C276.4,422.8 264.8,443.84 253.44,465.2C243.92,483.2 234.56,501.28 225.36,519.68C223.52,523.36 221.76,527.12 219.92,530.8C208.72,553.92 198.64,576.08 189.44,597.6C179.04,621.84 169.92,645.04 162,667.04C156.72,681.52 152,695.44 147.6,708.88C144,720.32 140.64,731.84 137.28,743.28C129.6,770.16 122.96,797.04 117.52,823.76L169.2,925.76C176,907.52 183.04,888.96 190.24,870.24C192.4,864.88 194.32,859.6 196.4,854.48Z" style="fill:url(#_Linear16);fill-rule:nonzero;"/>
                            <path id="path1994" d="M116.96,827.2C110.48,859.84 105.84,892.32 103.52,924.64C103.44,925.76 103.36,926.88 103.28,928C87.12,902.16 44,876.96 44.08,877.2C75.04,922 98.48,966.48 101.92,1010.16C85.36,1013.52 62.72,1008.64 36.56,999.04C63.84,1024.16 84.32,1031.04 92.4,1032.96C67.28,1034.56 41.2,1051.76 14.88,1071.6C53.36,1055.92 84.48,1049.68 106.72,1054.72C71.36,1154.72 36,1265.12 0.56,1382.4C11.44,1379.2 17.92,1371.84 21.52,1362C27.84,1340.8 69.68,1201.44 135.36,1018.48C137.28,1013.28 139.12,1008 141.04,1002.8C141.52,1001.28 142.08,999.84 142.64,998.48C149.52,979.28 156.8,959.68 164.16,939.68C165.84,935.12 167.52,930.56 169.28,926C169.28,925.92 169.36,925.84 169.36,925.76L117.6,823.76C117.44,824.8 117.2,826 116.96,827.2Z" style="fill:url(#_Linear17);fill-rule:nonzero;"/>
                            <path id="path2006" d="M385.84,448.16C384.32,451.2 382.88,454.24 381.36,457.28C376.88,466.48 372.4,475.84 367.76,485.44C362.8,495.84 357.84,506.4 352.8,517.28C350.24,522.72 347.68,528.24 345.12,533.84C337.44,550.56 329.68,567.84 321.76,585.68C312.08,607.52 302.08,630.32 292.08,654C282.56,676.56 272.72,699.84 262.96,724C253.6,746.88 244.16,770.56 234.56,794.88C226,816.56 217.36,838.96 208.72,861.92C208.32,862.96 207.92,864.16 207.52,865.2C198.88,888 190.16,911.44 181.44,935.44C181.28,936 181.04,936.48 180.88,937.12L222.48,932.56C221.68,932.4 220.8,932.32 220,932.16C269.68,926 335.84,888.8 378.48,842.96C398.16,821.84 416,796.88 432.48,767.68C444.72,746 456.32,721.84 467.36,695.2C476.96,671.92 486.16,646.64 495.04,619.36C483.6,625.36 470.56,629.84 456.16,632.88C453.6,633.44 451.04,633.92 448.4,634.4C445.76,634.88 443.12,635.28 440.4,635.6C440.4,635.6 440.48,635.6 440.48,635.52C486.88,617.68 516.08,583.28 537.28,541.12C525.12,549.44 505.28,560.32 481.52,565.52C478.32,566.24 475.04,566.8 471.68,567.36C470.88,567.44 470,567.6 469.2,567.76L469.36,567.76C485.52,561.04 499.04,553.44 510.8,544.56C513.36,542.64 515.84,540.72 518.08,538.64C521.68,535.52 525.04,532.24 528.4,528.88C530.48,526.64 532.48,524.4 534.48,522.08C539.12,516.56 543.44,510.64 547.44,504.24C548.64,502.24 549.92,500.32 551.04,498.24C552.64,495.28 554.08,492.32 555.52,489.52C562,476.56 567.2,464.88 571.28,454.72C573.36,449.6 575.12,444.96 576.72,440.48C577.36,438.72 577.92,437.04 578.48,435.36C580.16,430.48 581.44,426.16 582.48,422.32C584.08,416.56 585.04,412 585.52,408.72C583.92,409.92 582.16,411.2 580.08,412.4C566.08,420.8 542.08,428.32 522.72,431.92L560.88,427.76L522.72,431.92C522.48,432 522.16,432 521.84,432.08C519.84,432.4 518,432.72 516,432.96C516.32,432.8 516.64,432.64 516.96,432.48L386.32,446.8C386.32,447.12 386.08,447.68 385.84,448.16Z" style="fill:url(#_Linear18);fill-rule:nonzero;"/>
                            <path id="path2018" d="M532.88,184.16C521.28,202 508.64,222.24 494.88,245.2C494.16,246.32 493.36,247.68 492.72,248.8C480.96,268.64 468.48,290.4 455.2,314.32C443.84,334.96 432,357.04 419.68,380.8C408.96,401.52 397.92,423.52 386.48,446.8L517.12,432.48C555.2,414.96 572.16,399.2 588.64,376.24C592.96,369.92 597.44,363.36 601.76,356.48C615.2,335.52 628.32,312.48 640.08,289.52C651.44,267.36 661.44,245.44 669.12,225.6C674,213.04 677.92,201.36 680.64,191.04C683.04,182 684.88,173.36 686.32,165.12C635.68,173.84 573.36,182.16 532.88,184.16Z" style="fill:url(#_Linear19);fill-rule:nonzero;"/>
                            <path id="path2020" d="M448.4,634.24C445.76,634.72 443.12,635.12 440.4,635.44C443.12,635.2 445.84,634.72 448.4,634.24Z" style="fill:rgb(189,32,46);fill-rule:nonzero;"/>
                            <path id="path2022" d="M448.4,634.24C445.76,634.72 443.12,635.12 440.4,635.44C443.12,635.2 445.84,634.72 448.4,634.24Z" style="fill:rgb(189,32,46);fill-opacity:0.35;fill-rule:nonzero;"/>
                            <path id="path2034" d="M448.4,634.24C445.76,634.72 443.12,635.12 440.4,635.44C443.12,635.2 445.84,634.72 448.4,634.24Z" style="fill:url(#_Linear20);fill-rule:nonzero;"/>
                            <path id="path2036" d="M469.28,567.68C470.08,567.6 470.96,567.44 471.76,567.28C470.96,567.36 470.16,567.6 469.28,567.68Z" style="fill:rgb(189,32,46);fill-rule:nonzero;"/>
                            <path id="path2038" d="M469.28,567.68C470.08,567.6 470.96,567.44 471.76,567.28C470.96,567.36 470.16,567.6 469.28,567.68Z" style="fill:rgb(189,32,46);fill-opacity:0.35;fill-rule:nonzero;"/>
                            <path id="path2050" d="M469.28,567.68C470.08,567.6 470.96,567.44 471.76,567.28C470.96,567.36 470.16,567.6 469.28,567.68Z" style="fill:url(#_Linear21);fill-rule:nonzero;"/>
                            <path id="path2052" d="M469.28,567.68C469.36,567.68 469.36,567.6 469.28,567.68C469.36,567.6 469.36,567.68 469.28,567.68Z" style="fill:rgb(189,32,46);fill-rule:nonzero;"/>
                            <path id="path2054" d="M469.28,567.68C469.36,567.68 469.36,567.6 469.28,567.68C469.36,567.6 469.36,567.68 469.28,567.68Z" style="fill:rgb(189,32,46);fill-opacity:0.35;fill-rule:nonzero;"/>
                            <path id="path2066" d="M469.28,567.68C469.36,567.68 469.36,567.6 469.28,567.68C469.36,567.6 469.36,567.68 469.28,567.68Z" style="fill:url(#_Linear22);fill-rule:nonzero;"/>
                        </g>
                        <path id="path2070" d="M586.612,584.246C584.801,583.921 577.962,582.169 576.892,581.755C574.384,580.787 565.771,576.375 564.76,575.541C563.408,574.426 563.234,574.291 560.771,572.456C558.331,570.638 553.097,565.403 551.279,562.964C550.502,561.921 549.653,560.808 549.392,560.491C549.131,560.174 548.694,559.641 548.42,559.306C547.846,558.602 542.991,550.399 542.991,550.132C542.991,550.033 542.486,548.827 541.869,547.45C541.252,546.073 540.376,543.88 539.922,542.576C539.469,541.272 538.914,539.778 538.69,539.257C538.189,538.089 536.82,531.64 536.325,528.114C535.802,524.386 535.818,514.155 536.352,510.808C537.76,501.991 538.87,498.223 542.09,491.337C542.586,490.277 542.991,489.157 542.991,488.848C542.991,488.539 543.205,488.286 543.465,488.286C543.726,488.286 543.94,488.011 543.94,487.674C543.94,487.337 545.257,485.065 546.867,482.625C549.479,478.668 555.427,472.096 559.349,468.836C563.407,465.462 571.434,461.065 576.227,459.59C577.636,459.157 579.322,458.617 579.974,458.392C582.384,457.559 587.013,456.953 593.013,456.686C600.747,456.341 608.861,457.351 614.587,459.37C618.869,460.881 622.781,462.687 623.042,463.275C623.129,463.471 623.408,463.631 623.661,463.631C624.661,463.631 630.044,467.709 633.275,470.915C637.015,474.624 639.463,477.874 641.403,481.701C642.618,484.099 642.632,484.216 641.784,484.801C641.299,485.136 640.678,485.576 640.405,485.781C640.131,485.985 639.351,486.473 638.672,486.864C637.992,487.255 636.453,488.184 635.251,488.928C632.803,490.443 631.869,490.332 631.15,488.439C629.139,483.151 619.917,474.474 613.639,471.962C606.724,469.196 602.531,468.371 595.416,468.376C587.876,468.384 583.027,469.307 577.001,471.893C574.942,472.777 570.55,475.4 569.628,476.298C569.283,476.633 568.856,476.907 568.678,476.907C568.174,476.907 562.901,482.111 560.581,484.898C558.07,487.914 553.707,495.672 552.677,498.955C552.267,500.258 551.745,501.752 551.516,502.274C549.502,506.862 548.315,517.978 549.049,525.388C549.551,530.46 550.605,535.77 551.52,537.834C551.751,538.356 552.082,539.316 552.255,539.968C553.019,542.843 557.484,551.162 559.823,554.07C562.16,556.975 566.423,561.458 568.358,563.045C570.574,564.863 577.77,569.361 578.473,569.368C578.647,569.368 579.34,569.658 580.013,570.01C580.686,570.361 583.14,571.159 585.466,571.784C589.021,572.739 590.714,572.91 596.095,572.862C605.1,572.781 610.814,571.227 618.38,566.801C623.338,563.901 630.185,557.206 632.604,552.894C633.517,551.267 634.477,549.932 634.738,549.929C635.743,549.915 644.932,554.915 644.932,555.475C644.932,556.14 642.17,561.41 641.629,561.779C641.438,561.909 641.035,562.482 640.735,563.053C639.603,565.204 634.412,570.279 629.522,574.017C626.927,576.001 620.058,579.49 615.298,581.241C608.973,583.569 605.137,584.193 596.332,584.328C591.638,584.4 587.264,584.363 586.612,584.246ZM208.246,583.583C208.246,583.318 208.452,582.732 208.704,582.279C208.955,581.826 209.607,580.389 210.152,579.085C210.697,577.781 211.331,576.287 211.56,575.766C211.79,575.244 213.282,571.724 214.876,567.942C216.469,564.161 217.967,560.641 218.204,560.119C218.441,559.598 219.187,557.784 219.863,556.089C220.538,554.394 221.283,552.58 221.518,552.059C221.752,551.537 222.398,550.044 222.953,548.74C223.508,547.436 224.266,545.697 224.638,544.875C225.011,544.053 225.315,543.241 225.315,543.071C225.315,542.802 226.225,540.616 227.691,537.36C227.926,536.839 228.67,535.025 229.346,533.33C230.021,531.635 230.768,529.821 231.005,529.3C231.243,528.778 231.989,526.965 232.665,525.27C233.34,523.574 234.085,521.761 234.319,521.239C234.554,520.718 235.197,519.224 235.747,517.92C236.297,516.616 236.935,515.123 237.164,514.601C237.394,514.08 238.567,511.306 239.771,508.438C240.975,505.569 242.152,502.795 242.386,502.274C242.62,501.752 243.686,499.192 244.755,496.584C245.824,493.976 246.89,491.416 247.123,490.894C247.356,490.373 248.293,488.132 249.205,485.916C254.315,473.498 255.486,470.689 256.62,468.135C256.851,467.614 257.597,465.8 258.277,464.105C258.958,462.41 259.928,460.116 260.435,459.008L261.355,456.993L271.665,456.993L272.725,459.482C274.043,462.579 275.493,465.939 276.049,467.187C277.663,470.811 278.419,472.627 278.419,472.877C278.419,473.142 279.329,475.289 281.061,479.112C281.434,479.934 281.738,480.746 281.738,480.916C281.738,481.184 282.472,482.95 284.109,486.627C285.723,490.251 286.48,492.067 286.48,492.317C286.48,492.476 286.922,493.607 287.462,494.832C288.003,496.056 288.764,497.805 289.154,498.718C289.544,499.63 290.052,500.804 290.284,501.325C290.515,501.847 291.257,503.66 291.933,505.356C292.608,507.051 293.351,508.864 293.584,509.386C293.816,509.907 295.314,513.428 296.911,517.209C298.508,520.99 300.006,524.511 300.238,525.032C300.471,525.554 301.009,526.834 301.434,527.877C305.794,538.585 307.525,542.795 308.064,543.998C308.414,544.781 309.579,547.554 310.653,550.162C311.727,552.77 312.796,555.33 313.03,555.852C313.263,556.373 313.904,557.867 314.454,559.171C315.004,560.475 315.647,561.968 315.881,562.49C316.116,563.011 316.861,564.825 317.536,566.52C318.212,568.215 318.957,570.029 319.192,570.55C321.489,575.638 324.411,582.817 324.411,583.371C324.411,583.946 323.251,584.063 317.568,584.063C310.884,584.063 310.717,584.038 310.4,582.997C310.109,582.043 309.006,579.366 307.812,576.714C307.577,576.193 306.828,574.379 306.148,572.684C304.99,569.795 304.052,567.561 303.064,565.335C302.833,564.813 302.091,563 301.415,561.304C300.74,559.609 299.995,557.796 299.761,557.274C298.323,554.081 297.385,551.836 297.385,551.584C297.385,551.426 296.989,550.4 296.504,549.306C296.02,548.212 295.327,546.624 294.966,545.776L294.309,544.235L238.234,544.235L237.278,546.488C236.752,547.726 235.738,550.233 235.024,552.059C234.311,553.884 233.328,556.273 232.84,557.367C232.353,558.461 231.953,559.486 231.953,559.645C231.953,559.896 231.016,562.141 229.578,565.335C229.343,565.856 228.598,567.67 227.923,569.365C227.248,571.06 226.497,572.874 226.254,573.395C226.011,573.917 225.042,576.264 224.099,578.611C223.157,580.958 222.276,583.145 222.141,583.471C221.829,584.224 208.246,584.333 208.246,583.583ZM291.221,533.778C291.221,533.326 290.522,531.62 288.579,527.332C288.207,526.51 287.902,525.689 287.902,525.507C287.902,525.325 287.592,524.504 287.213,523.682C286.835,522.86 285.337,519.2 283.885,515.55C282.433,511.899 281.048,508.485 280.806,507.963C280.565,507.442 279.386,504.455 278.188,501.325C276.989,498.196 275.819,495.209 275.586,494.687C275.354,494.166 274.845,492.992 274.456,492.08C274.066,491.167 273.304,489.418 272.764,488.194C272.224,486.97 271.78,485.796 271.779,485.586C271.779,485.376 271.5,484.671 271.163,484.019C270.827,483.367 270.038,481.447 269.411,479.752C268.783,478.057 267.995,476.136 267.658,475.485C267.321,474.833 267.045,474.032 267.043,473.706C267.035,472.71 266.175,473.048 265.834,474.181C265.657,474.767 265.23,475.888 264.886,476.67C264.541,477.452 263.38,480.226 262.306,482.834C261.232,485.442 259.733,489.069 258.974,490.894C258.215,492.72 254.188,502.428 250.024,512.468C245.86,522.508 242.115,531.522 241.701,532.5L240.949,534.278L266.085,534.278C283.398,534.278 291.221,534.123 291.221,533.778ZM337.687,584.068L337.687,456.993L364.121,457.001C391.728,457.009 396.728,457.263 401.155,458.913C404.279,460.077 409.122,462.477 410.007,463.3C410.346,463.615 411.335,464.402 412.205,465.049C418.323,469.598 424.166,478.68 426.396,487.105C428.555,495.263 427.672,506.368 424.249,514.108C419.336,525.218 411.066,532.907 400.627,536.072C398.534,536.707 394.371,536.854 374.315,537.005L350.489,537.183L350.489,584.068L337.687,584.068ZM393.957,525.231C402.703,524.021 409.792,517.357 413.334,507.015C414.552,503.457 414.83,493.636 413.823,489.69C412.455,484.328 409.949,479.875 406.227,476.196C404.381,474.37 402.232,472.557 401.454,472.166C400.674,471.776 399.93,471.341 399.8,471.2C399.67,471.06 398.603,470.531 397.429,470.026C395.437,469.168 393.812,469.097 372.892,468.955L350.489,468.803L350.489,525.744L370.369,525.744C382.026,525.744 391.783,525.532 393.957,525.231ZM420.511,583.708C420.397,583.512 421.121,581.432 422.12,579.085C423.119,576.738 425.778,570.337 428.029,564.86C430.279,559.384 432.408,554.263 432.76,553.481C433.112,552.699 434.282,549.925 435.361,547.317C437.249,542.751 438.274,540.322 439.162,538.308C439.392,537.787 440.459,535.227 441.533,532.619C442.607,530.011 443.767,527.237 444.112,526.455C444.456,525.673 445.838,522.365 447.181,519.106C448.525,515.846 450.242,511.685 450.997,509.86C452.606,505.968 457.988,493.218 458.602,491.842C458.835,491.321 459.578,489.507 460.253,487.812C460.929,486.117 461.673,484.304 461.908,483.782C462.143,483.26 462.789,481.767 463.344,480.463C463.898,479.159 464.657,477.42 465.029,476.598C465.401,475.776 465.706,474.965 465.706,474.794C465.706,474.526 466.439,472.76 468.077,469.084C469.018,466.969 470.371,463.711 471.424,461.023C472.037,459.458 472.734,457.912 472.973,457.586C473.275,457.175 474.976,456.993 478.508,456.993L483.608,456.993L484.227,458.534C485.471,461.631 490.917,474.559 492.266,477.618C492.496,478.14 493.56,480.7 494.629,483.308C495.698,485.916 496.769,488.476 497.009,488.998C497.249,489.519 499.061,493.893 501.036,498.718C503.012,503.542 504.82,507.916 505.054,508.438C505.288,508.959 506.589,512.053 507.945,515.313C511.15,523.017 514.481,530.947 515.016,532.145C515.249,532.666 515.889,534.16 516.439,535.464C516.989,536.768 517.631,538.261 517.866,538.783C518.101,539.304 518.85,541.118 519.53,542.813C520.688,545.702 521.626,547.936 522.614,550.162C522.845,550.684 523.591,552.497 524.271,554.192C524.951,555.887 525.814,557.947 526.189,558.768C526.564,559.59 526.87,560.409 526.87,560.588C526.87,560.767 527.51,562.297 528.293,563.987C529.075,565.677 529.715,567.173 529.715,567.311C529.715,567.449 530.022,568.234 530.397,569.056C530.772,569.878 531.635,571.937 532.315,573.632C532.995,575.327 533.743,577.141 533.978,577.662C535.62,581.309 536.353,583.13 536.353,583.563C536.353,584.325 523.333,584.237 522.718,583.471C522.456,583.145 520.377,578.291 518.098,572.684C515.819,567.077 513.674,561.85 513.33,561.067C512.986,560.285 512.149,558.258 511.469,556.563C510.789,554.868 510.041,553.054 509.806,552.533C509.163,551.105 507.658,547.516 506.972,545.773L506.364,544.228L478.157,544.35L449.949,544.472L447.142,551.348C445.598,555.129 444.129,558.716 443.878,559.32C443.627,559.924 443.421,560.522 443.421,560.65C443.421,560.853 442.392,563.294 441.046,566.283C440.811,566.805 440.062,568.618 439.383,570.313C438.703,572.008 437.866,574.035 437.524,574.818C437.182,575.6 436.193,578 435.327,580.152L433.752,584.063L427.235,584.063C423.651,584.063 420.625,583.903 420.511,583.708ZM503.163,534.027C503.163,533.793 501.53,529.729 500.121,526.455C499.784,525.673 499.007,523.646 498.395,521.951C497.782,520.256 497.006,518.335 496.669,517.683C496.332,517.031 496.056,516.326 496.054,516.116C496.046,515.786 495.216,513.754 493.676,510.334C493.441,509.813 492.692,507.999 492.012,506.304C491.333,504.609 490.497,502.582 490.155,501.799C489.813,501.017 489.141,499.31 488.662,498.006C488.182,496.702 487.517,495.102 487.182,494.45C486.848,493.798 486.573,493.084 486.571,492.862C486.571,492.641 486.26,491.788 485.883,490.966C485.506,490.144 484.413,487.445 483.454,484.967C482.495,482.49 481.34,479.61 480.888,478.566C480.435,477.523 479.769,475.976 479.407,475.128C478.587,473.205 478.049,473.359 477.241,475.748C476.894,476.777 476.408,478.045 476.162,478.566C475.916,479.088 475.265,480.582 474.715,481.885C474.165,483.189 473.522,484.683 473.287,485.204C472.901,486.059 467.742,498.388 461.384,513.653C460.08,516.782 458.823,519.77 458.59,520.291C458.358,520.813 457.296,523.373 456.231,525.981C455.166,528.589 453.982,531.423 453.6,532.279C453.217,533.136 452.904,533.936 452.904,534.057C452.904,534.179 464.212,534.278 478.034,534.278C491.855,534.278 503.163,534.165 503.163,534.027ZM662.225,583.485C662.098,583.151 662.049,554.607 662.116,520.054L662.238,457.23L674.566,457.23L674.688,485.323L674.811,513.416L749.244,513.416L749.244,456.993L762.045,456.993L762.045,584.063L749.244,584.063L749.244,524.795L674.81,524.795L674.688,554.311L674.566,583.826L668.511,583.959C663.93,584.059 662.4,583.945 662.225,583.485ZM790.02,584.063L790.02,456.993L873.469,456.993L873.469,468.846L802.822,468.846L802.822,513.416L864.46,513.416L864.46,524.795L802.822,524.795L802.822,572.21L874.891,572.21L874.891,584.063L790.02,584.063Z" style="fill:rgb(170,0,0);fill-rule:nonzero;"/>
                        <g id="g2106">
                            <path id="path2072" d="M204.608,638.462L204.608,599.13L211.247,599.13L211.247,616.179L230.772,616.179L230.772,599.13L237.412,599.13L237.412,638.462L230.772,638.462L230.772,622.369L211.247,622.369L211.247,638.462L204.608,638.462Z" style="fill-rule:nonzero;"/>
                            <path id="path2074" d="M263.202,605.207L263.202,638.462L256.563,638.462L256.563,605.207L244.634,605.207L244.634,599.13L275.131,599.13L275.131,605.207L263.202,605.207Z" style="fill-rule:nonzero;"/>
                            <path id="path2076" d="M297.161,605.207L297.161,638.462L290.521,638.462L290.521,605.207L278.593,605.207L278.593,599.13L309.09,599.13L309.09,605.207L297.161,605.207Z" style="fill-rule:nonzero;"/>
                            <path id="path2078" d="M329.769,599.13C335.734,599.13 340.085,600.274 342.824,602.563C345.562,604.851 346.931,608.377 346.931,613.141C346.931,617.905 345.525,621.394 342.711,623.607C339.935,625.82 335.659,626.927 329.882,626.927L322.905,626.927L322.905,638.462L316.265,638.462L316.265,599.13L329.769,599.13ZM330.613,620.906C334.29,620.906 336.784,620.212 338.097,618.824C339.448,617.399 340.123,615.335 340.123,612.635C340.123,609.896 339.279,607.964 337.591,606.839C335.903,605.714 333.258,605.151 329.657,605.151L322.905,605.151L322.905,620.906L330.613,620.906Z" style="fill-rule:nonzero;"/>
                            <path id="path2080" d="M381.988,604.307C380.075,604.307 378.499,604.701 377.262,605.489C376.024,606.276 375.405,607.477 375.405,609.09C375.405,610.665 376.024,611.884 377.262,612.747C378.499,613.572 381.125,614.473 385.139,615.448C389.19,616.423 392.229,617.792 394.255,619.556C396.318,621.319 397.349,623.926 397.349,627.377C397.349,630.79 396.055,633.566 393.467,635.705C390.878,637.843 387.484,638.912 383.282,638.912C377.13,638.912 371.672,636.792 366.908,632.554L371.072,627.546C375.048,630.997 379.175,632.722 383.451,632.722C385.589,632.722 387.277,632.272 388.515,631.372C389.791,630.434 390.428,629.215 390.428,627.714C390.428,626.176 389.828,624.995 388.628,624.17C387.465,623.307 385.439,622.538 382.551,621.863C379.662,621.15 377.468,620.512 375.967,619.949C374.467,619.349 373.135,618.58 371.972,617.642C369.647,615.879 368.484,613.179 368.484,609.54C368.484,605.901 369.797,603.106 372.423,601.156C375.086,599.168 378.368,598.174 382.269,598.174C384.783,598.174 387.277,598.586 389.753,599.412C392.229,600.237 394.367,601.4 396.168,602.9L392.623,607.908C391.46,606.858 389.884,605.995 387.896,605.32C385.908,604.644 383.939,604.307 381.988,604.307Z" style="fill-rule:nonzero;"/>
                        </g>
                    </g>
                </g>
            </g>
        </g>
    </g>
    <defs>
        <linearGradient id="_Linear3" x1="0" y1="0" x2="1" y2="0" gradientUnits="userSpaceOnUse" gradientTransform="matrix(289.466,-80.478,80.478,289.466,521.427,117.351)"><stop offset="0" style="stop-color:rgb(245,151,35);stop-opacity:1"/><stop offset="0.31" style="stop-color:rgb(246,152,34);stop-opacity:1"/><stop offset="0.84" style="stop-color:rgb(232,119,38);stop-opacity:1"/><stop offset="1" style="stop-color:rgb(232,119,38);stop-opacity:1"/></linearGradient>
        <linearGradient id="_Linear4" x1="0" y1="0" x2="1" y2="0" gradientUnits="userSpaceOnUse" gradientTransform="matrix(588.763,-1262.62,1262.62,588.763,-112.187,1416.49)"><stop offset="0" style="stop-color:rgb(156,32,99);stop-opacity:1"/><stop offset="0.32" style="stop-color:rgb(156,32,99);stop-opacity:1"/><stop offset="0.63" style="stop-color:rgb(200,32,55);stop-opacity:1"/><stop offset="0.75" style="stop-color:rgb(204,33,53);stop-opacity:1"/><stop offset="1" style="stop-color:rgb(232,119,38);stop-opacity:1"/></linearGradient>
        <linearGradient id="_Linear5" x1="0" y1="0" x2="1" y2="0" gradientUnits="userSpaceOnUse" gradientTransform="matrix(350.845,-752.4,752.4,350.845,85.3683,1323.05)"><stop offset="0" style="stop-color:rgb(40,38,97);stop-opacity:1"/><stop offset="0.1" style="stop-color:rgb(102,46,140);stop-opacity:1"/><stop offset="0.79" style="stop-color:rgb(158,32,100);stop-opacity:1"/><stop offset="0.95" style="stop-color:rgb(204,32,50);stop-opacity:1"/><stop offset="1" style="stop-color:rgb(204,32,50);stop-opacity:1"/></linearGradient>
        <linearGradient id="_Linear6" x1="0" y1="0" x2="1" y2="0" gradientUnits="userSpaceOnUse" gradientTransform="matrix(588.763,-1262.62,1262.62,588.763,-90.9716,1340.04)"><stop offset="0" style="stop-color:rgb(156,32,99);stop-opacity:1"/><stop offset="0.32" style="stop-color:rgb(156,32,99);stop-opacity:1"/><stop offset="0.63" style="stop-color:rgb(200,32,55);stop-opacity:1"/><stop offset="0.75" style="stop-color:rgb(204,33,53);stop-opacity:1"/><stop offset="1" style="stop-color:rgb(232,119,38);stop-opacity:1"/></linearGradient>
        <linearGradient id="_Linear7" x1="0" y1="0" x2="1" y2="0" gradientUnits="userSpaceOnUse" gradientTransform="matrix(309.413,-663.546,663.546,309.413,-30.9012,1255.95)"><stop offset="0" style="stop-color:rgb(40,38,97);stop-opacity:1"/><stop offset="0.1" style="stop-color:rgb(102,46,140);stop-opacity:1"/><stop offset="0.79" style="stop-color:rgb(158,32,100);stop-opacity:1"/><stop offset="0.95" style="stop-color:rgb(204,32,50);stop-opacity:1"/><stop offset="1" style="stop-color:rgb(204,32,50);stop-opacity:1"/></linearGradient>
        <linearGradient id="_Linear8" x1="0" y1="0" x2="1" y2="0" gradientUnits="userSpaceOnUse" gradientTransform="matrix(588.763,-1262.62,1262.62,588.763,39.7567,1401)"><stop offset="0" style="stop-color:rgb(156,32,99);stop-opacity:1"/><stop offset="0.32" style="stop-color:rgb(156,32,99);stop-opacity:1"/><stop offset="0.63" style="stop-color:rgb(200,32,55);stop-opacity:1"/><stop offset="0.75" style="stop-color:rgb(204,33,53);stop-opacity:1"/><stop offset="1" style="stop-color:rgb(232,119,38);stop-opacity:1"/></linearGradient>
        <linearGradient id="_Linear9" x1="0" y1="0" x2="1" y2="0" gradientUnits="userSpaceOnUse" gradientTransform="matrix(588.763,-1262.62,1262.62,588.763,-3.30748,1476.28)"><stop offset="0" style="stop-color:rgb(156,32,99);stop-opacity:1"/><stop offset="0.32" style="stop-color:rgb(156,32,99);stop-opacity:1"/><stop offset="0.63" style="stop-color:rgb(200,32,55);stop-opacity:1"/><stop offset="0.75" style="stop-color:rgb(204,33,53);stop-opacity:1"/><stop offset="1" style="stop-color:rgb(232,119,38);stop-opacity:1"/></linearGradient>
        <linearGradient id="_Linear10" x1="0" y1="0" x2="1" y2="0" gradientUnits="userSpaceOnUse" gradientTransform="matrix(588.764,-1262.62,1262.62,588.764,78.5518,1419.09)"><stop offset="0" style="stop-color:rgb(156,32,99);stop-opacity:1"/><stop offset="0.32" style="stop-color:rgb(156,32,99);stop-opacity:1"/><stop offset="0.63" style="stop-color:rgb(200,32,55);stop-opacity:1"/><stop offset="0.75" style="stop-color:rgb(204,33,53);stop-opacity:1"/><stop offset="1" style="stop-color:rgb(232,119,38);stop-opacity:1"/></linearGradient>
        <linearGradient id="_Linear11" x1="0" y1="0" x2="1" y2="0" gradientUnits="userSpaceOnUse" gradientTransform="matrix(588.764,-1262.62,1262.62,588.764,74.1699,1417.05)"><stop offset="0" style="stop-color:rgb(156,32,99);stop-opacity:1"/><stop offset="0.32" style="stop-color:rgb(156,32,99);stop-opacity:1"/><stop offset="0.63" style="stop-color:rgb(200,32,55);stop-opacity:1"/><stop offset="0.75" style="stop-color:rgb(204,33,53);stop-opacity:1"/><stop offset="1" style="stop-color:rgb(232,119,38);stop-opacity:1"/></linearGradient>
        <linearGradient id="_Linear12" x1="0" y1="0" x2="1" y2="0" gradientUnits="userSpaceOnUse" gradientTransform="matrix(130.136,-279.081,279.081,130.136,404.014,707.3)"><stop offset="0" style="stop-color:rgb(156,32,99);stop-opacity:1"/><stop offset="0.32" style="stop-color:rgb(156,32,99);stop-opacity:1"/><stop offset="0.63" style="stop-color:rgb(200,32,55);stop-opacity:1"/><stop offset="0.75" style="stop-color:rgb(204,33,53);stop-opacity:1"/><stop offset="1" style="stop-color:rgb(232,119,38);stop-opacity:1"/></linearGradient>
        <linearGradient id="_Linear13" x1="0" y1="0" x2="1" y2="0" gradientUnits="userSpaceOnUse" gradientTransform="matrix(289.466,-80.478,80.478,289.466,521.427,117.351)"><stop offset="0" style="stop-color:rgb(245,151,35);stop-opacity:1"/><stop offset="0.31" style="stop-color:rgb(246,152,34);stop-opacity:1"/><stop offset="0.84" style="stop-color:rgb(232,119,38);stop-opacity:1"/><stop offset="1" style="stop-color:rgb(232,119,38);stop-opacity:1"/></linearGradient>
        <linearGradient id="_Linear14" x1="0" y1="0" x2="1" y2="0" gradientUnits="userSpaceOnUse" gradientTransform="matrix(588.763,-1262.62,1262.62,588.763,-112.187,1416.49)"><stop offset="0" style="stop-color:rgb(156,32,99);stop-opacity:1"/><stop offset="0.32" style="stop-color:rgb(156,32,99);stop-opacity:1"/><stop offset="0.63" style="stop-color:rgb(200,32,55);stop-opacity:1"/><stop offset="0.75" style="stop-color:rgb(204,33,53);stop-opacity:1"/><stop offset="1" style="stop-color:rgb(232,119,38);stop-opacity:1"/></linearGradient>
        <linearGradient id="_Linear15" x1="0" y1="0" x2="1" y2="0" gradientUnits="userSpaceOnUse" gradientTransform="matrix(350.845,-752.4,752.4,350.845,85.3683,1323.05)"><stop offset="0" style="stop-color:rgb(40,38,97);stop-opacity:1"/><stop offset="0.1" style="stop-color:rgb(102,46,140);stop-opacity:1"/><stop offset="0.79" style="stop-color:rgb(158,32,100);stop-opacity:1"/><stop offset="0.95" style="stop-color:rgb(204,32,50);stop-opacity:1"/><stop offset="1" style="stop-color:rgb(204,32,50);stop-opacity:1"/></linearGradient>
        <linearGradient id="_Linear16" x1="0" y1="0" x2="1" y2="0" gradientUnits="userSpaceOnUse" gradientTransform="matrix(588.763,-1262.62,1262.62,588.763,-90.9716,1340.04)"><stop offset="0" style="stop-color:rgb(156,32,99);stop-opacity:1"/><stop offset="0.32" style="stop-color:rgb(156,32,99);stop-opacity:1"/><stop offset="0.63" style="stop-color:rgb(200,32,55);stop-opacity:1"/><stop offset="0.75" style="stop-color:rgb(204,33,53);stop-opacity:1"/><stop offset="1" style="stop-color:rgb(232,119,38);stop-opacity:1"/></linearGradient>
        <linearGradient id="_Linear17" x1="0" y1="0" x2="1" y2="0" gradientUnits="userSpaceOnUse" gradientTransform="matrix(309.413,-663.546,663.546,309.413,-30.9012,1255.95)"><stop offset="0" style="stop-color:rgb(40,38,97);stop-opacity:1"/><stop offset="0.1" style="stop-color:rgb(102,46,140);stop-opacity:1"/><stop offset="0.79" style="stop-color:rgb(158,32,100);stop-opacity:1"/><stop offset="0.95" style="stop-color:rgb(204,32,50);stop-opacity:1"/><stop offset="1" style="stop-color:rgb(204,32,50);stop-opacity:1"/></linearGradient>
        <linearGradient id="_Linear18" x1="0" y1="0" x2="1" y2="0" gradientUnits="userSpaceOnUse" gradientTransform="matrix(588.763,-1262.62,1262.62,588.763,39.7567,1401)"><stop offset="0" style="stop-color:rgb(156,32,99);stop-opacity:1"/><stop offset="0.32" style="stop-color:rgb(156,32,99);stop-opacity:1"/><stop offset="0.63" style="stop-color:rgb(200,32,55);stop-opacity:1"/><stop offset="0.75" style="stop-color:rgb(204,33,53);stop-opacity:1"/><stop offset="1" style="stop-color:rgb(232,119,38);stop-opacity:1"/></linearGradient>
        <linearGradient id="_Linear19" x1="0" y1="0" x2="1" y2="0" gradientUnits="userSpaceOnUse" gradientTransform="matrix(588.763,-1262.62,1262.62,588.763,-3.30748,1476.28)"><stop offset="0" style="stop-color:rgb(156,32,99);stop-opacity:1"/><stop offset="0.32" style="stop-color:rgb(156,32,99);stop-opacity:1"/><stop offset="0.63" style="stop-color:rgb(200,32,55);stop-opacity:1"/><stop offset="0.75" style="stop-color:rgb(204,33,53);stop-opacity:1"/><stop offset="1" style="stop-color:rgb(232,119,38);stop-opacity:1"/></linearGradient>
        <linearGradient id="_Linear20" x1="0" y1="0" x2="1" y2="0" gradientUnits="userSpaceOnUse" gradientTransform="matrix(588.764,-1262.62,1262.62,588.764,78.5518,1419.09)"><stop offset="0" style="stop-color:rgb(156,32,99);stop-opacity:1"/><stop offset="0.32" style="stop-color:rgb(156,32,99);stop-opacity:1"/><stop offset="0.63" style="stop-color:rgb(200,32,55);stop-opacity:1"/><stop offset="0.75" style="stop-color:rgb(204,33,53);stop-opacity:1"/><stop offset="1" style="stop-color:rgb(232,119,38);stop-opacity:1"/></linearGradient>
        <linearGradient id="_Linear21" x1="0" y1="0" x2="1" y2="0" gradientUnits="userSpaceOnUse" gradientTransform="matrix(588.764,-1262.62,1262.62,588.764,74.1699,1417.05)"><stop offset="0" style="stop-color:rgb(156,32,99);stop-opacity:1"/><stop offset="0.32" style="stop-color:rgb(156,32,99);stop-opacity:1"/><stop offset="0.63" style="stop-color:rgb(200,32,55);stop-opacity:1"/><stop offset="0.75" style="stop-color:rgb(204,33,53);stop-opacity:1"/><stop offset="1" style="stop-color:rgb(232,119,38);stop-opacity:1"/></linearGradient>
        <linearGradient id="_Linear22" x1="0" y1="0" x2="1" y2="0" gradientUnits="userSpaceOnUse" gradientTransform="matrix(130.136,-279.081,279.081,130.136,404.014,707.3)"><stop offset="0" style="stop-color:rgb(156,32,99);stop-opacity:1"/><stop offset="0.32" style="stop-color:rgb(156,32,99);stop-opacity:1"/><stop offset="0.63" style="stop-color:rgb(200,32,55);stop-opacity:1"/><stop offset="0.75" style="stop-color:rgb(204,33,53);stop-opacity:1"/><stop offset="1" style="stop-color:rgb(232,119,38);stop-opacity:1"/></linearGradient>
    </defs>
</svg>
