<?xml version="1.0" encoding="UTF-8" standalone="no"?>
<!DOCTYPE svg PUBLIC "-//W3C//DTD SVG 1.1//EN" "http://www.w3.org/Graphics/SVG/1.1/DTD/svg11.dtd">
<svg width="100%" height="100%" viewBox="0 0 1000 1000" version="1.1" xmlns="http://www.w3.org/2000/svg" xmlns:xlink="http://www.w3.org/1999/xlink" xml:space="preserve" xmlns:serif="http://www.serif.com/" style="fill-rule:evenodd;clip-rule:evenodd;stroke-linejoin:round;stroke-miterlimit:2;">
    <g id="Siter-text" serif:id="Siter text" transform="matrix(2.46819,0,0,2.46819,-537.491,159.677)">
        <g id="Underline" transform="matrix(0.405154,0,0,0.405154,217.767,-62.2631)">
            <path d="M623.309,726.793C535.482,737.863 458.887,749.931 391.991,762.008C206.938,795.418 96.055,828.859 27.17,841.547C25.395,841.889 23.676,840.727 23.334,838.952C22.991,837.178 24.154,835.459 25.928,835.116C94.63,821.231 205,785.878 389.571,749.238C489.414,729.418 610.923,709.226 759.26,691.85C764.329,691.301 768.966,694.749 769.9,699.762C770.834,704.775 767.75,709.662 762.822,710.975C605.348,754.594 517.829,778.788 430.798,809.577C423.452,812.176 416.11,814.822 408.738,817.532C468.894,804.98 527.818,794.658 583.654,786.591C609.866,782.805 635.404,779.592 660.075,777.026C686.789,774.247 712.449,772.315 736.829,770.646C770.283,768.355 801.206,766.812 829.102,765.907C896.434,763.724 945.524,764.871 967.782,766.531C969.589,766.574 971.02,768.076 970.977,769.883C970.933,771.69 969.431,773.122 967.624,773.078C945.491,773.659 897.02,778.127 830.696,786.297C790.952,791.192 744.991,797.605 694.417,805.147C671.16,808.616 646.963,812.3 621.948,816.063C587.118,821.303 550.742,826.717 513.401,832.97C417.661,849.001 315.413,869.424 215.404,896.898C207.602,899.097 199.432,894.861 196.732,887.218C194.032,879.575 197.728,871.148 205.18,867.957C295.041,830.51 358.554,805.882 422.276,784.722C481.856,764.938 541.599,748.184 623.309,726.793Z"/>
        </g>
        <path id="Letter-s" serif:id="Letter s" d="M309.604,79.069C305.71,67.821 299.003,60.913 291.581,57.368C277.474,50.629 260.509,56.239 251.666,69.649C242.037,84.253 241.906,108.626 267.408,137.417C279.298,150.339 286.846,162.612 291.614,173.641C298.378,189.287 298.907,202.517 294.756,212.698C284.636,237.514 249.93,241.6 231.333,209.102C230.529,207.552 228.618,206.945 227.067,207.749C225.517,208.552 224.91,210.463 225.714,212.014C232.579,226.761 242.636,235.668 253.191,240.031C274.169,248.703 297.608,239.268 307.618,218.401C313.819,205.478 315.006,187.706 306.114,167.341C300.723,154.995 291.269,141.771 277.305,127.894C254.461,106.037 251.651,86.432 258.608,73.848C264.766,62.708 278.024,57.459 289.527,62.055C296.24,64.738 302.3,70.654 306.286,80.326C306.633,81.241 307.658,81.703 308.573,81.356C309.489,81.01 309.951,79.985 309.604,79.069Z"/>
        <path id="Siter-text1" serif:id="Siter text" d="M395.126,126.446C399.413,102.788 405.333,73.569 412.803,37.684C413.457,34.551 416.523,32.537 419.658,33.181C422.794,33.825 424.818,36.884 424.183,40.022C416.143,80.418 410.067,116.087 403.467,145.32C401.535,156.908 400.13,166.84 399.269,175.308C397.808,189.685 397.853,199.557 399.827,206.027C400.891,209.514 402.51,211.698 405.146,212.612C407.614,213.468 410.651,213.429 414.262,212.964C420.157,212.204 426.158,208.215 432.676,202.643C436.235,199.601 439.893,196.086 443.67,192.242C439.143,182.117 436.911,169.75 437.078,157.221C437.484,126.847 452.19,96.233 478.973,93.067C492.06,91.434 500.752,95.084 505.832,100.67C512.322,107.806 513.38,118.72 509.009,128.93C505.65,136.775 501.727,143.876 496.788,150.859C492.367,157.11 487.128,163.271 480.726,169.793C473.328,177.342 466.378,184.943 459.79,191.952C460.442,192.906 461.131,193.817 461.854,194.679C466.714,200.472 473.323,203.855 481.874,202.777C494.405,201.289 508.888,197.029 520.673,172.802C524.694,164.537 528.498,154.145 531.658,140.972C534.705,128.27 537.121,113.047 538.997,94.859C538.939,93.089 539.133,91.172 539.62,89.102C540.327,86.056 543.277,84.081 546.363,84.586C549.449,85.092 551.614,87.905 551.313,91.017L550.986,94.218C551.181,96.522 552.629,98.033 554.834,98.76C558.642,100.017 563.724,99.723 568.954,98.338C578.171,95.896 587.91,89.884 592.427,80.585C593.818,77.742 597.14,76.419 600.105,77.526C603.07,78.634 604.711,81.81 603.899,84.87C593.675,123.619 586.467,152.361 586.23,170.612C586.172,175.071 586.523,178.807 587.492,181.802C588.394,184.594 589.885,186.457 592.281,187.519C594.593,188.545 597.309,189.46 600.93,189.477C603.853,189.494 607.334,189.073 610.473,187.108C613.203,185.4 615.7,182.917 617.405,179.152C617.676,178.292 618.594,177.813 619.454,178.084C620.314,178.355 620.793,179.273 620.522,180.133C619.568,185.239 617.163,188.949 614.375,191.884C610.727,195.723 606.145,197.681 602.102,198.746C596.557,200.199 591.914,200.243 588.065,199.134C578.36,196.337 573.438,186.463 573.623,170.447C573.798,155.258 578.646,133.037 586.113,104.081C579.035,108.312 571.128,110.822 564.008,111.416C558.384,111.885 553.262,111.13 549.179,109.354C547.416,122.383 545.319,133.73 543.056,143.64C539.812,157.851 536.159,169.163 532.06,178.164C517.974,209.095 499.47,214.461 483.715,216.744C469.742,218.665 458.683,213.442 450.781,203.918C450.392,203.449 450.01,202.968 449.641,202.474C446.385,205.723 443.214,208.714 440.121,211.356C431.587,218.646 423.441,223.332 415.726,224.325C407.4,225.397 401.021,224.257 396.366,220.79C391.368,217.068 387.947,210.243 387.063,198.673C377.457,219.471 364.964,231.616 347.825,234.092C340.585,234.989 335.249,233.314 331.351,230.026C326.286,225.756 323.449,218.312 322.967,208.858C322.818,205.921 322.878,202.769 323.106,199.477C322.759,200.059 322.409,200.631 322.058,201.195C312.112,217.166 301.373,226.202 291.418,233.765C289.759,235.049 287.371,234.744 286.087,233.085C284.804,231.426 285.109,229.038 286.767,227.754C295.95,220.52 305.891,211.939 314.918,196.838C320.424,187.626 325.572,176.01 330.032,160.858C332.249,151.794 334.411,143.795 335.552,138.43L335.863,136.9C336.401,134.333 338.9,132.673 341.474,133.174C344.049,133.674 345.745,136.149 345.282,138.73C343.403,150.143 335.57,177.239 334.536,198.583C334.27,204.063 334.489,209.124 335.451,213.332C336.15,216.389 337.211,218.92 339.149,220.44C340.791,221.728 343.077,221.894 346.026,221.421C362.635,219.104 372.443,204.219 380.814,180.758C386.138,165.837 390.647,147.553 395.126,126.446ZM454.371,180.982C460.116,174.819 466.144,168.263 472.517,161.753C478.428,155.703 483.275,149.998 487.353,144.202C491.797,137.887 495.32,131.466 498.336,124.375C500.763,118.67 500.871,112.503 497.227,108.538C494.088,105.124 488.519,103.755 480.49,104.824C459.436,107.767 450.316,133.312 450.514,157.255C450.583,165.584 451.857,173.804 454.371,180.982Z"/>
        <g id="i-dot" serif:id="i dot" transform="matrix(0.839893,0,0,0.839893,71.8181,22.8816)">
            <circle cx="325.095" cy="112.242" r="8.277"/>
        </g>
        <g id="t" transform="matrix(0.809954,0.0765939,-0.0765939,0.809954,78.8838,-13.9031)">
            <path d="M372.243,105.503C382.278,112.872 398.24,117.149 414.678,117.185C421.991,117.201 429.407,116.428 436.317,114.674C443.958,112.735 450.969,109.643 456.799,105.716C459.822,103.852 460.764,99.884 458.9,96.861C457.036,93.837 453.068,92.896 450.044,94.76C445.121,97.528 439.238,99.242 433.04,100.546C427.085,101.799 420.807,102.538 414.566,102.647C401.215,102.882 388.038,100.619 379.646,94.974C376.741,92.931 372.723,93.631 370.68,96.536C368.637,99.442 369.338,103.46 372.243,105.503Z"/>
        </g>
    </g>
</svg>
