<?xml version="1.0" encoding="UTF-8" standalone="no"?>
<!DOCTYPE svg PUBLIC "-//W3C//DTD SVG 1.1//EN" "http://www.w3.org/Graphics/SVG/1.1/DTD/svg11.dtd">
<svg width="100%" height="100%" viewBox="0 0 1000 1000" version="1.1" xmlns="http://www.w3.org/2000/svg" xmlns:xlink="http://www.w3.org/1999/xlink" xml:space="preserve" xmlns:serif="http://www.serif.com/" style="fill-rule:evenodd;clip-rule:evenodd;stroke-linejoin:round;stroke-miterlimit:2;">
    <path d="M500,0C775.958,0 1000,224.042 1000,500C1000,775.958 775.958,1000 500,1000C224.042,1000 0,775.958 0,500C0,224.042 224.042,0 500,0ZM500,125C706.968,125 875,293.032 875,500C875,706.968 706.968,875 500,875C293.032,875 125,706.968 125,500C125,293.032 293.032,125 500,125Z" style="fill:rgb(56,56,56);"/>
    <g transform="matrix(1.22335,1.22335,-0.337563,0.337563,51.6839,-238.347)">
        <path d="M658.409,351.043C658.409,307.689 648.697,272.49 636.734,272.49L333.279,272.49C321.316,272.49 311.604,307.689 311.604,351.043L311.604,508.149C311.604,551.503 321.316,586.701 333.279,586.701L636.734,586.701C648.697,586.701 658.409,551.503 658.409,508.149L658.409,351.043Z" style="fill:rgb(56,56,56);"/>
    </g>
    <g transform="matrix(1.22335,-1.22335,0.337563,0.337563,-238.347,948.316)">
        <path d="M658.409,351.043C658.409,307.689 648.697,272.49 636.734,272.49L333.279,272.49C321.316,272.49 311.604,307.689 311.604,351.043L311.604,508.149C311.604,551.503 321.316,586.701 333.279,586.701L636.734,586.701C648.697,586.701 658.409,551.503 658.409,508.149L658.409,351.043Z" style="fill:rgb(56,56,56);"/>
    </g>
</svg>
