<?xml version="1.0" encoding="UTF-8" standalone="no"?>
<!DOCTYPE svg PUBLIC "-//W3C//DTD SVG 1.1//EN" "http://www.w3.org/Graphics/SVG/1.1/DTD/svg11.dtd">
<svg width="100%" height="100%" viewBox="0 0 1000 1000" version="1.1" xmlns="http://www.w3.org/2000/svg" xmlns:xlink="http://www.w3.org/1999/xlink" xml:space="preserve" xmlns:serif="http://www.serif.com/" style="fill-rule:evenodd;clip-rule:evenodd;stroke-linejoin:round;stroke-miterlimit:2;">
    <g id="Siter-text" serif:id="Siter text" transform="matrix(2.46819,0,0,2.46819,-537.491,159.677)">
        <path id="Siter-text1" serif:id="Siter text" d="M309.604,79.069C305.71,67.821 299.003,60.913 291.581,57.368C277.474,50.629 260.509,56.239 251.666,69.649C242.037,84.253 241.906,108.626 267.408,137.417C279.298,150.339 286.846,162.612 291.614,173.641C298.378,189.287 298.907,202.517 294.756,212.698C284.636,237.514 249.93,241.6 231.333,209.102C230.529,207.552 228.618,206.945 227.067,207.749C225.517,208.552 224.91,210.463 225.714,212.014C232.579,226.761 242.636,235.668 253.191,240.031C274.169,248.703 297.608,239.268 307.618,218.401C313.819,205.478 315.006,187.706 306.114,167.341C300.723,154.995 291.269,141.771 277.305,127.894C254.461,106.037 251.651,86.432 258.608,73.848C264.766,62.708 278.024,57.459 289.527,62.055C296.24,64.738 302.3,70.654 306.286,80.326C306.633,81.241 307.658,81.703 308.573,81.356C309.489,81.01 309.951,79.985 309.604,79.069Z"/>
        <path id="Siter-text2" serif:id="Siter text" d="M395.251,125.973C399.527,102.392 405.411,73.328 412.822,37.688C413.474,34.565 416.529,32.558 419.655,33.2C422.78,33.842 424.797,36.891 424.165,40.018C416.091,80.578 409.994,116.372 403.362,145.666C401.456,157.108 400.069,166.922 399.216,175.302C397.751,189.689 397.8,199.569 399.775,206.043C400.845,209.55 402.476,211.744 405.128,212.664C407.603,213.522 410.648,213.486 414.269,213.019C420.173,212.258 426.185,208.267 432.713,202.686C436.085,199.804 439.546,196.496 443.112,192.884C438.511,182.549 436.259,169.962 436.515,157.22C437.128,126.699 452.028,95.994 478.963,92.986C492.07,91.398 500.757,95.068 505.831,100.672C512.303,107.819 513.37,118.72 508.994,128.923C505.63,136.765 501.704,143.862 496.762,150.84C492.338,157.087 487.097,163.244 480.692,169.76C473.523,177.073 466.774,184.435 460.366,191.259C461.047,192.263 461.768,193.217 462.526,194.118C467.218,199.697 473.529,203.046 481.777,202.043C493.863,200.725 505.485,192.996 516.728,169.913C520.796,161.56 524.884,151.383 528.555,138.874C532.118,126.74 535.249,112.46 538.258,95.798C538.126,93.512 538.56,90.949 539.769,88.1C540.965,85.226 544.133,83.713 547.12,84.589C550.108,85.464 551.957,88.448 551.412,91.513C551.168,92.854 550.921,94.179 550.671,95.493C550.998,96.058 551.75,96.27 552.521,96.565C554.529,97.333 557.087,97.599 559.9,97.566C562.776,97.533 565.892,97.134 569.031,96.428C578.789,94.236 589.238,89.348 591.669,81.337C592.709,77.99 596.189,76.046 599.584,76.915C602.978,77.784 605.097,81.16 604.402,84.595C598.302,115.611 589.472,148.187 588.958,169.732C588.871,173.37 589.047,176.64 589.488,179.509C589.996,182.807 590.434,185.617 592.41,187.278C594.349,188.909 597.09,189.659 600.839,189.419C602.82,189.278 605.773,188.243 608.68,186.052C611.018,184.29 613.369,181.945 615.234,178.819C616.18,177 618.425,176.29 620.245,177.236C622.065,178.182 622.774,180.427 621.828,182.247C619.869,186.625 617.146,190.045 614.369,192.721C610.085,196.847 605.375,198.882 602.193,199.513C595.776,200.83 590.761,199.872 586.782,197.848C580.417,194.611 576.401,187.693 575.115,177.811C574.78,175.235 574.777,172.426 574.852,169.441C575.279,152.264 581.067,128.314 586.73,103.587C579.678,107.166 571.421,109.378 563.962,109.949C557.939,110.41 552.466,109.655 548.169,107.972C545.578,120.216 542.87,131.06 540.231,140.705C534.362,162.149 528.311,177.677 521.741,188.802C510.031,208.631 496.879,215.453 483.811,217.477C473.1,219.103 463.992,216.517 456.711,211.008C453.83,208.827 451.244,206.146 448.965,203.066C445.933,206.07 442.975,208.844 440.084,211.313C431.56,218.594 423.425,223.278 415.719,224.27C407.411,225.34 401.044,224.206 396.399,220.747C391.391,217.017 387.974,210.166 387.106,198.537C377.498,219.416 364.998,231.611 347.826,234.101C340.586,234.979 335.254,233.305 331.365,230.009C326.318,225.731 323.554,218.293 323.039,208.853C322.914,206.575 322.913,204.166 323.014,201.662L322.963,201.747C313.021,217.931 302.226,227.111 292.222,234.804C289.99,236.531 286.776,236.121 285.048,233.889C283.321,231.657 283.732,228.442 285.964,226.715C295.094,219.608 304.987,211.177 314.013,196.286C322.165,182.836 329.58,164.196 335.236,136.769C335.846,133.859 338.678,131.978 341.597,132.545C344.515,133.112 346.437,135.917 345.912,138.843C343.905,150.235 335.639,177.24 334.483,198.58C334.186,204.063 334.429,209.133 335.398,213.343C336.102,216.408 337.188,218.938 339.135,220.457C340.783,221.743 343.073,221.894 346.025,221.413C362.636,219.104 372.458,204.225 380.835,180.765C386.203,165.733 390.74,147.285 395.251,125.973ZM454.983,180.402C460.555,174.417 466.392,168.08 472.551,161.786C478.46,155.731 483.303,150.021 487.379,144.221C491.82,137.901 495.34,131.476 498.352,124.382C500.776,118.671 500.883,112.496 497.228,108.537C494.087,105.134 488.513,103.808 480.5,104.905C459.583,107.967 450.721,133.449 451.078,157.257C451.2,165.388 452.502,173.392 454.983,180.402Z"/>
        <g id="i-dot" serif:id="i dot" transform="matrix(0.853294,0,0,0.853294,67.4617,21.3775)">
            <circle cx="325.095" cy="112.242" r="8.277"/>
        </g>
        <g id="t" transform="matrix(0.809954,0.0765939,-0.0765939,0.809954,78.8838,-13.9031)">
            <path d="M372.243,105.503C382.278,112.872 398.24,117.149 414.678,117.185C421.991,117.201 429.407,116.428 436.317,114.674C443.958,112.735 450.969,109.643 456.799,105.716C459.822,103.852 460.764,99.884 458.9,96.861C457.036,93.837 453.068,92.896 450.044,94.76C445.121,97.528 439.238,99.242 433.04,100.546C427.085,101.799 420.807,102.538 414.566,102.647C401.215,102.882 388.038,100.619 379.646,94.974C376.741,92.931 372.723,93.631 370.68,96.536C368.637,99.442 369.338,103.46 372.243,105.503Z"/>
        </g>
    </g>
    <g transform="matrix(1,0,0,1,0,6)">
        <path d="M623.309,726.793C535.482,737.863 458.887,749.931 391.991,762.008C206.938,795.418 96.055,828.859 27.17,841.547C25.395,841.889 23.676,840.727 23.334,838.952C22.991,837.178 24.154,835.459 25.928,835.116C94.63,821.231 205,785.878 389.571,749.238C489.414,729.418 610.923,709.226 759.26,691.85C764.329,691.301 768.966,694.749 769.9,699.762C770.834,704.775 767.75,709.662 762.822,710.975C605.348,754.594 517.829,778.788 430.798,809.577C423.452,812.176 416.11,814.822 408.738,817.532C468.894,804.98 527.818,794.658 583.654,786.591C609.866,782.805 635.404,779.592 660.075,777.026C686.789,774.247 712.449,772.315 736.829,770.646C770.283,768.355 801.206,766.812 829.102,765.907C896.434,763.724 945.524,764.871 967.782,766.531C969.589,766.574 971.02,768.076 970.977,769.883C970.933,771.69 969.431,773.122 967.624,773.078C945.491,773.659 897.02,778.127 830.696,786.297C790.952,791.192 744.991,797.605 694.417,805.147C671.16,808.616 646.963,812.3 621.948,816.063C587.118,821.303 550.742,826.717 513.401,832.97C417.661,849.001 315.413,869.424 215.404,896.898C207.602,899.097 199.432,894.861 196.732,887.218C194.032,879.575 197.728,871.148 205.18,867.957C295.041,830.51 358.554,805.882 422.276,784.722C481.856,764.938 541.599,748.184 623.309,726.793Z"/>
    </g>
</svg>
