<?xml version="1.0" encoding="UTF-8" standalone="no"?>
<!DOCTYPE svg PUBLIC "-//W3C//DTD SVG 1.1//EN" "http://www.w3.org/Graphics/SVG/1.1/DTD/svg11.dtd">
<svg width="100%" height="100%" viewBox="0 0 1000 1000" version="1.1" xmlns="http://www.w3.org/2000/svg" xmlns:xlink="http://www.w3.org/1999/xlink" xml:space="preserve" xmlns:serif="http://www.serif.com/" style="fill-rule:evenodd;clip-rule:evenodd;stroke-linejoin:round;stroke-miterlimit:2;">
    <g id="Siter-text" serif:id="Siter text" transform="matrix(2.46819,0,0,2.46819,-537.491,159.677)">
        <g id="Underline" transform="matrix(0.405154,0,0,0.405154,217.767,-62.2631)">
            <path d="M623.309,726.793C535.482,737.863 458.887,749.931 391.991,762.008C206.938,795.418 96.055,828.859 27.17,841.547C25.395,841.889 23.676,840.727 23.334,838.952C22.991,837.178 24.154,835.459 25.928,835.116C94.63,821.231 205,785.878 389.571,749.238C489.414,729.418 610.923,709.226 759.26,691.85C764.329,691.301 768.966,694.749 769.9,699.762C770.834,704.775 767.75,709.662 762.822,710.975C605.348,754.594 517.829,778.788 430.798,809.577C423.452,812.176 416.11,814.822 408.738,817.532C468.894,804.98 527.818,794.658 583.654,786.591C609.866,782.805 635.404,779.592 660.075,777.026C686.789,774.247 712.449,772.315 736.829,770.646C770.283,768.355 801.206,766.812 829.102,765.907C896.434,763.724 945.524,764.871 967.782,766.531C969.589,766.574 971.02,768.076 970.977,769.883C970.933,771.69 969.431,773.122 967.624,773.078C945.491,773.659 897.02,778.127 830.696,786.297C790.952,791.192 744.991,797.605 694.417,805.147C671.16,808.616 646.963,812.3 621.948,816.063C587.118,821.303 550.742,826.717 513.401,832.97C417.661,849.001 315.413,869.424 215.404,896.898C207.602,899.097 199.432,894.861 196.732,887.218C194.032,879.575 197.728,871.148 205.18,867.957C295.041,830.51 358.554,805.882 422.276,784.722C481.856,764.938 541.599,748.184 623.309,726.793Z"/>
        </g>
        <path id="Letter-s" serif:id="Letter s" d="M309.604,79.069C305.71,67.821 299.003,60.913 291.581,57.368C277.474,50.629 260.509,56.239 251.666,69.649C242.037,84.253 241.906,108.626 267.408,137.417C279.298,150.339 286.846,162.612 291.614,173.641C298.378,189.287 298.907,202.517 294.756,212.698C284.636,237.514 249.93,241.6 231.333,209.102C230.529,207.552 228.618,206.945 227.067,207.749C225.517,208.552 224.91,210.463 225.714,212.014C232.579,226.761 242.636,235.668 253.191,240.031C274.169,248.703 297.608,239.268 307.618,218.401C313.819,205.478 315.006,187.706 306.114,167.341C300.723,154.995 291.269,141.771 277.305,127.894C254.461,106.037 251.651,86.432 258.608,73.848C264.766,62.708 278.024,57.459 289.527,62.055C296.24,64.738 302.3,70.654 306.286,80.326C306.633,81.241 307.658,81.703 308.573,81.356C309.489,81.01 309.951,79.985 309.604,79.069Z"/>
        <path id="Siter-text1" serif:id="Siter text" d="M395.109,126.538C399.399,102.856 405.325,73.611 412.804,37.684C413.458,34.551 416.523,32.537 419.658,33.181C422.794,33.825 424.817,36.884 424.183,40.022C416.146,80.399 410.07,116.054 403.473,145.28C401.537,156.889 400.13,166.831 399.268,175.308C397.807,189.685 397.853,199.557 399.827,206.027C400.891,209.514 402.51,211.698 405.146,212.612C407.615,213.467 410.651,213.429 414.262,212.964C420.157,212.204 426.158,208.215 432.676,202.643C436.24,199.596 439.905,196.074 443.689,192.222C439.156,182.069 436.893,169.735 437.06,157.221C437.467,126.838 452.18,96.218 478.971,93.051C492.062,91.426 500.754,95.08 505.834,100.669C512.321,107.808 513.382,118.72 509.011,128.93C505.652,136.776 501.729,143.877 496.79,150.86C492.368,157.111 487.129,163.272 480.727,169.794C473.334,177.338 466.387,184.935 459.806,191.937C460.457,192.892 461.146,193.803 461.869,194.666C466.726,200.463 473.324,203.866 481.877,202.8C494.414,201.312 508.912,197.054 520.695,172.813C524.714,164.546 528.505,154.147 531.659,140.972C534.562,128.851 536.895,114.435 538.732,97.339C538.36,94.765 538.622,91.823 539.789,88.496C540.776,85.652 543.733,83.996 546.673,84.639C549.614,85.282 551.609,88.022 551.319,91.018C551.141,92.826 550.956,94.607 550.762,96.362C551.21,97.287 552.219,97.8 553.351,98.247C555.203,98.978 557.468,99.3 559.938,99.348C562.859,99.404 566.04,99.04 569.243,98.317C579.16,96.077 589.718,90.609 591.99,81.743C592.828,78.513 596.086,76.538 599.337,77.288C602.589,78.038 604.652,81.24 603.99,84.511C597.821,115.272 589.651,147.262 589.31,168.674C589.226,173.923 589.591,178.453 590.756,182.033C591.474,184.238 592.467,185.951 594.025,187.094C595.774,188.378 597.864,189.452 600.929,189.471C603.852,189.488 607.332,189.07 610.471,187.106C613.202,185.398 615.699,182.917 617.405,179.152C617.676,178.292 618.594,177.813 619.454,178.084C620.314,178.355 620.793,179.273 620.522,180.133C619.569,185.24 617.164,188.95 614.377,191.886C610.729,195.727 606.146,197.686 602.103,198.752C595.296,200.468 589.973,199.25 585.901,196.443C581.8,193.617 579.221,188.598 577.837,182.207C574.219,165.488 580.536,135.53 587.266,104.119C580.054,108.255 571.577,110.783 563.83,111.293C558.313,111.657 553.274,110.934 549.188,109.319C547.423,122.364 545.323,133.722 543.055,143.64C539.805,157.848 536.139,169.155 532.038,178.153C517.948,209.068 499.461,214.438 483.711,216.721C473.237,218.241 464.374,215.665 457.26,210.284C454.427,208.142 451.879,205.513 449.625,202.492C446.372,205.735 443.209,208.719 440.121,211.356C431.587,218.646 423.441,223.332 415.726,224.325C407.4,225.397 401.02,224.257 396.366,220.79C391.368,217.068 387.947,210.243 387.063,198.671C377.457,219.473 364.965,231.621 347.826,234.1C340.584,234.996 335.246,233.32 331.347,230.032C326.281,225.76 323.442,218.315 322.961,208.858C322.812,205.923 322.872,202.775 323.1,199.489C322.754,200.068 322.407,200.636 322.059,201.195C312.112,217.167 301.373,226.202 291.418,233.765C289.759,235.049 287.371,234.744 286.087,233.085C284.804,231.426 285.109,229.038 286.767,227.754C295.95,220.52 305.891,211.938 314.917,196.838C320.419,187.632 325.563,176.027 330.021,160.892C332.241,151.812 334.409,143.795 335.551,138.423L335.861,136.9C336.399,134.332 338.899,132.671 341.475,133.172C344.05,133.672 345.747,136.148 345.284,138.73C343.406,150.143 335.574,177.239 334.541,198.584C334.276,204.063 334.495,209.123 335.457,213.331C336.156,216.386 337.217,218.916 339.153,220.435C340.794,221.722 343.078,221.887 346.025,221.414C362.633,219.099 372.444,204.217 380.816,180.759C386.134,165.858 390.638,147.603 395.109,126.538ZM454.388,180.963C460.129,174.803 466.151,168.255 472.516,161.752C478.427,155.702 483.273,149.997 487.352,144.201C491.796,137.886 495.319,131.465 498.335,124.375C500.761,118.67 500.87,112.502 497.225,108.539C494.087,105.127 488.517,103.766 480.492,104.84C471.982,106.028 465.446,111.177 460.659,118.28C453.67,128.651 450.414,143.127 450.532,157.255C450.602,165.577 451.876,173.788 454.388,180.963Z"/>
        <g id="i-dot" serif:id="i dot" transform="matrix(0.853294,0,0,0.853294,67.4617,21.3775)">
            <circle cx="325.095" cy="112.242" r="8.277"/>
        </g>
        <g id="t" transform="matrix(0.809954,0.0765939,-0.0765939,0.809954,78.8838,-13.9031)">
            <path d="M372.243,105.503C382.278,112.872 398.24,117.149 414.678,117.185C421.991,117.201 429.407,116.428 436.317,114.674C443.958,112.735 450.969,109.643 456.799,105.716C459.822,103.852 460.764,99.884 458.9,96.861C457.036,93.837 453.068,92.896 450.044,94.76C445.121,97.528 439.238,99.242 433.04,100.546C427.085,101.799 420.807,102.538 414.566,102.647C401.215,102.882 388.038,100.619 379.646,94.974C376.741,92.931 372.723,93.631 370.68,96.536C368.637,99.442 369.338,103.46 372.243,105.503Z"/>
        </g>
    </g>
</svg>
