<?xml version="1.0" encoding="UTF-8" standalone="no"?>
<!DOCTYPE svg PUBLIC "-//W3C//DTD SVG 1.1//EN" "http://www.w3.org/Graphics/SVG/1.1/DTD/svg11.dtd">
<svg width="100%" height="100%" viewBox="0 0 1000 1000" version="1.1" xmlns="http://www.w3.org/2000/svg" xmlns:xlink="http://www.w3.org/1999/xlink" xml:space="preserve" xmlns:serif="http://www.serif.com/" style="fill-rule:evenodd;clip-rule:evenodd;stroke-linecap:round;stroke-linejoin:round;stroke-miterlimit:1.5;">
    <g id="Base" transform="matrix(0.5,0,0,0.5,250,250)">
        <circle cx="500" cy="500" r="500" style="fill:none;stroke:rgb(56,56,56);stroke-width:250px;"/>
    </g>
    <g id="Teeth">
        <g id="Tooth" transform="matrix(1,0,0,1,-252.282,-40.4172)">
            <path d="M846.154,250L658.409,250L683.781,110.821L820.782,110.821L846.154,250Z" style="fill:rgb(56,56,56);"/>
        </g>
        <g id="Tooth1" serif:id="Tooth" transform="matrix(0.707107,-0.707107,0.707107,0.707107,-414.076,649.811)">
            <path d="M846.154,250L658.409,250L683.781,110.821L820.782,110.821L846.154,250Z" style="fill:rgb(56,56,56);"/>
        </g>
        <g id="Tooth2" serif:id="Tooth" transform="matrix(2.22045e-16,-1,1,2.22045e-16,-40.4172,1252.28)">
            <path d="M846.154,250L658.409,250L683.781,110.821L820.782,110.821L846.154,250Z" style="fill:rgb(56,56,56);"/>
        </g>
        <g id="Tooth3" serif:id="Tooth" transform="matrix(-0.707107,-0.707107,0.707107,-0.707107,649.811,1414.08)">
            <path d="M846.154,250L658.409,250L683.781,110.821L820.782,110.821L846.154,250Z" style="fill:rgb(56,56,56);"/>
        </g>
        <g id="Tooth4" serif:id="Tooth" transform="matrix(-1,-2.77556e-16,2.77556e-16,-1,1252.28,1040.42)">
            <path d="M846.154,250L658.409,250L683.781,110.821L820.782,110.821L846.154,250Z" style="fill:rgb(56,56,56);"/>
        </g>
        <g id="Tooth5" serif:id="Tooth" transform="matrix(-0.707107,0.707107,-0.707107,-0.707107,1414.08,350.189)">
            <path d="M846.154,250L658.409,250L683.781,110.821L820.782,110.821L846.154,250Z" style="fill:rgb(56,56,56);"/>
        </g>
        <g id="Tooth6" serif:id="Tooth" transform="matrix(-4.44089e-16,1,-1,-4.44089e-16,1040.42,-252.282)">
            <path d="M846.154,250L658.409,250L683.781,110.821L820.782,110.821L846.154,250Z" style="fill:rgb(56,56,56);"/>
        </g>
        <g id="Tooth7" serif:id="Tooth" transform="matrix(0.707107,0.707107,-0.707107,0.707107,350.189,-414.076)">
            <path d="M846.154,250L658.409,250L683.781,110.821L820.782,110.821L846.154,250Z" style="fill:rgb(56,56,56);"/>
        </g>
    </g>
</svg>
