<?xml version="1.0" encoding="UTF-8" standalone="no"?>
<!DOCTYPE svg PUBLIC "-//W3C//DTD SVG 1.1//EN" "http://www.w3.org/Graphics/SVG/1.1/DTD/svg11.dtd">
<svg width="100%" height="100%" viewBox="0 0 1000 1000" version="1.1" xmlns="http://www.w3.org/2000/svg" xmlns:xlink="http://www.w3.org/1999/xlink" xml:space="preserve" xmlns:serif="http://www.serif.com/" style="fill-rule:evenodd;clip-rule:evenodd;stroke-linejoin:round;stroke-miterlimit:2;">
    <g transform="matrix(4.39353,-0.487288,0.487288,4.39353,-774.775,-15.1888)">
        <g id="Siter-icon" serif:id="Siter icon">
            <path id="Letter-s" serif:id="Letter s" d="M309.857,78.973C305.977,67.601 299.212,60.626 291.737,57.01C277.437,50.09 260.203,55.754 251.136,69.328C241.282,84.082 240.971,108.781 266.652,138.145C278.39,150.989 285.785,163.193 290.506,174.122C297.11,189.41 297.783,202.297 293.773,212.262C283.989,236.575 250.149,240.543 231.762,208.88C230.836,207.092 228.632,206.393 226.845,207.319C225.057,208.246 224.358,210.449 225.285,212.236C232.135,227.203 242.291,236.228 252.942,240.711C274.311,249.705 298.279,240.102 308.601,218.837C314.972,205.711 316.278,187.588 307.221,166.86C301.782,154.412 292.191,141.112 278.061,127.166C255.441,105.795 252.364,86.595 259.138,74.168C265.111,63.211 278.069,57.963 289.37,62.414C296.027,65.035 302.046,70.866 306.033,80.422C306.433,81.477 307.614,82.01 308.669,81.61C309.725,81.21 310.257,80.029 309.857,78.973Z"/>
        </g>
    </g>
</svg>
